<svg width="16" height="19" viewBox="0 0 16 19" fill="none" xmlns="http://www.w3.org/2000/svg">
<path d="M13.121 10.0035C13.1126 8.45243 13.8048 7.28177 15.2057 6.41962C14.4218 5.28277 13.2377 4.65729 11.6742 4.53473C10.1941 4.4164 8.57637 5.40956 7.98432 5.40956C7.35892 5.40956 5.92466 4.57699 4.79893 4.57699C2.47243 4.61503 0 6.45766 0 10.2063C0 11.3136 0.200129 12.4575 0.600388 13.638C1.13407 15.189 3.06031 18.9926 5.06994 18.9292C6.12062 18.9039 6.86277 18.1727 8.23032 18.1727C9.55617 18.1727 10.2441 18.9292 11.4157 18.9292C13.442 18.8996 15.1848 15.4426 15.6935 13.8873C12.975 12.5899 13.121 10.0837 13.121 10.0035ZM10.7611 3.06401C11.8994 1.69471 11.7951 0.447979 11.7618 0C10.7569 0.059167 9.5937 0.693099 8.93077 1.47495C8.20113 2.31174 7.77169 3.34716 7.86341 4.5136C8.95162 4.59812 9.94392 4.03181 10.7611 3.06401Z" fill="#F0F0F0"/>
</svg>
