<svg width="16" height="20" viewBox="0 0 16 20" fill="none" xmlns="http://www.w3.org/2000/svg">
<path d="M8 0C6.33835 0 4.74475 0.680667 3.56979 1.89226C2.39482 3.10386 1.73473 4.74713 1.73473 6.46059V9.71672C1.73486 9.8599 1.70269 10.0011 1.64075 10.1293L0.10397 13.2977C0.0289001 13.4525 -0.00654733 13.6245 0.000994646 13.7974C0.00853662 13.9703 0.0588175 14.1384 0.147062 14.2856C0.235306 14.4328 0.358584 14.5543 0.505186 14.6386C0.651789 14.7229 0.816849 14.7671 0.984688 14.7671H15.0153C15.1832 14.7671 15.3482 14.7229 15.4948 14.6386C15.6414 14.5543 15.7647 14.4328 15.8529 14.2856C15.9412 14.1384 15.9915 13.9703 15.999 13.7974C16.0065 13.6245 15.9711 13.4525 15.896 13.2977L14.3601 10.1293C14.2979 10.0012 14.2654 9.85997 14.2653 9.71672V6.46059C14.2653 4.74713 13.6052 3.10386 12.4302 1.89226C11.2552 0.680667 9.66165 0 8 0ZM8 17.5359C7.44449 17.5362 6.90257 17.3588 6.44892 17.0282C5.99526 16.6976 5.65221 16.2301 5.46704 15.69H10.533C10.3478 16.2301 10.0047 16.6976 9.55109 17.0282C9.09743 17.3588 8.55551 17.5362 8 17.5359Z" fill="#F0F0F0"/>
</svg>
