<svg width="84" height="84" viewBox="0 0 84 84" fill="none" xmlns="http://www.w3.org/2000/svg">
<rect width="84" height="84" rx="20" fill="#222222"/>
<path d="M51.7822 30.0029C54.9504 30.0029 57.9893 31.2528 60.2295 33.4775C62.4696 35.7023 63.7285 38.72 63.7285 41.8662V51.1465C63.7283 52.8031 62.3852 54.1437 60.7285 54.1484C55.8565 54.1625 49.5663 54.1951 49.2822 54.1426C48.9312 54.0776 39.8165 52.3426 39.8369 41.8662C39.8431 38.72 41.0958 35.7023 43.3359 33.4775C45.5761 31.2528 48.6142 30.003 51.7822 30.0029ZM40.1719 30C40.7752 30 40.7449 30.7198 40.1953 30.9688C36.1322 32.8093 33.2852 37.0792 33.2852 42.0547C33.2853 47.0268 36.1287 51.2943 40.1875 53.1367C40.7725 53.4023 40.8144 54.1689 40.1719 54.1689H24C22.3432 54.1689 21.0001 52.8257 21 51.1689V33C21 31.3431 22.3431 30 24 30H40.1719ZM51.7822 36.6758C50.3964 36.6759 49.0669 37.2221 48.0869 38.1953C47.1068 39.1687 46.5566 40.4897 46.5566 41.8662C46.5568 43.2426 47.1069 44.5629 48.0869 45.5361C49.0669 46.5093 50.3963 47.0556 51.7822 47.0557C52.4684 47.0557 53.1483 46.9219 53.7822 46.6611C54.4163 46.4003 54.9932 46.0181 55.4785 45.5361C55.9638 45.0542 56.3487 44.4812 56.6113 43.8516C56.8738 43.2221 57.0087 42.5475 57.0088 41.8662C57.0088 41.1848 56.8739 40.5095 56.6113 39.8799C56.3487 39.2502 55.9638 38.6773 55.4785 38.1953C54.9932 37.7134 54.4163 37.3311 53.7822 37.0703C53.1483 36.8096 52.4684 36.6758 51.7822 36.6758ZM25.2969 32.6816C24.5299 32.6818 23.9082 33.3033 23.9082 34.0703C23.9083 34.8372 24.53 35.4588 25.2969 35.459H28.1816C28.8897 35.459 29.4638 34.8848 29.4639 34.1768V33.9629C29.4636 33.255 28.8896 32.6816 28.1816 32.6816H25.2969Z" fill="#4A4A4A"/>
</svg>
