<svg width="13" height="16" viewBox="0 0 13 16" fill="none" xmlns="http://www.w3.org/2000/svg">
<path d="M1.625 16C1.17812 16 0.795708 15.8435 0.47775 15.5304C0.159792 15.2173 0.000541667 14.8405 0 14.4V1.6C0 1.16 0.15925 0.783467 0.47775 0.4704C0.79625 0.157333 1.17867 0.000533333 1.625 0H11.375C11.8219 0 12.2046 0.1568 12.5231 0.4704C12.8416 0.784 13.0005 1.16053 13 1.6V14.4C13 14.84 12.841 15.2168 12.5231 15.5304C12.2051 15.844 11.8224 16.0005 11.375 16H1.625ZM5.6875 1.6V6.5C5.6875 6.66 5.75196 6.7768 5.88087 6.8504C6.00979 6.924 6.14846 6.92053 6.29688 6.84L7.29219 6.26C7.4276 6.18 7.56654 6.14 7.709 6.14C7.85146 6.14 7.99013 6.18 8.125 6.26L9.12031 6.84C9.26927 6.92 9.41146 6.92347 9.54688 6.8504C9.68229 6.77733 9.75 6.66053 9.75 6.5V1.6H5.6875Z" fill="#A3A3A3"/>
</svg>
