<svg width="15" height="19" viewBox="0 0 15 19" fill="none" xmlns="http://www.w3.org/2000/svg">
<path d="M0.5 5.9C0.5 3.3548 0.5 2.0813 1.26913 1.2911C2.03738 0.5 3.2755 0.5 5.75 0.5H9.25C11.7245 0.5 12.9626 0.5 13.7309 1.2911C14.5 2.0813 14.5 3.3548 14.5 5.9V13.1C14.5 15.6452 14.5 16.9187 13.7309 17.7089C12.9626 18.5 11.7245 18.5 9.25 18.5H5.75C3.2755 18.5 2.03738 18.5 1.26913 17.7089C0.5 16.9187 0.5 15.6452 0.5 13.1V5.9Z" stroke="#D6D6D6"/>
<path d="M14.4108 13.1016H3.91075C3.097 13.1016 2.69012 13.1016 2.35587 13.1934C1.91077 13.3161 1.50493 13.5573 1.17916 13.8925C0.853378 14.2277 0.619144 14.6453 0.5 15.1032" stroke="#D6D6D6"/>
<path d="M4 5H11M4 8.15H8.375" stroke="#D6D6D6" stroke-linecap="round"/>
</svg>
