<svg width="19" height="18" viewBox="0 0 19 18" fill="none" xmlns="http://www.w3.org/2000/svg">
<path d="M1.9 18C1.3775 18 0.930367 17.8146 0.5586 17.4439C0.186833 17.0732 0.000633333 16.6269 0 16.1053V5.68421C0 5.16316 0.1862 4.71726 0.5586 4.34653C0.931 3.97579 1.37813 3.7901 1.9 3.78947H5.7V1.89474C5.7 1.37368 5.8862 0.927789 6.2586 0.557053C6.631 0.186316 7.07813 0.000631579 7.6 0H11.4C11.9225 0 12.3699 0.185684 12.7423 0.557053C13.1147 0.928421 13.3006 1.37432 13.3 1.89474V3.78947H17.1C17.6225 3.78947 18.0699 3.97516 18.4423 4.34653C18.8147 4.71789 19.0006 5.16379 19 5.68421V16.1053C19 16.6263 18.8141 17.0725 18.4423 17.4439C18.0706 17.8153 17.6231 18.0006 17.1 18H1.9ZM7.6 3.78947H11.4V1.89474H7.6V3.78947Z" fill="#EC602D"/>
</svg>
