<svg width="14" height="18" viewBox="0 0 14 18" fill="none" xmlns="http://www.w3.org/2000/svg">
<path d="M6.99973 13.3488C5.4722 13.3488 4.1738 12.8102 3.10452 11.733C2.03525 10.6558 1.50061 9.31846 1.50061 7.72094C1.50061 6.12343 2.03158 4.68932 3.09352 3.41862C4.15546 2.14793 5.36588 1.05491 6.72477 0.139559C6.80115 0.0930469 6.87386 0.0580083 6.94291 0.0344425C7.01195 0.0108766 7.08436 -0.000596302 7.16012 2.3852e-05C7.37398 2.3852e-05 7.56492 0.0697912 7.73294 0.209326C7.90097 0.348861 8.01554 0.542659 8.07664 0.79072C8.19884 1.28684 8.42431 1.75196 8.75303 2.18607C9.08176 2.62017 9.55132 3.07754 10.1617 3.55816C11.063 4.27134 11.6779 4.93428 12.0067 5.54699C12.3354 6.1597 12.4995 6.88435 12.4988 7.72094C12.4988 9.31784 11.9642 10.6552 10.8949 11.733C9.82566 12.8109 8.52726 13.3495 6.99973 13.3488ZM0.927789 18C0.622283 18 0.374211 17.8719 0.183575 17.6158C-0.0070606 17.3597 -0.0492205 17.0769 0.0570958 16.7674L0.171661 16.4884C0.293863 16.1008 0.515355 15.7907 0.836137 15.5581C1.15692 15.3256 1.51589 15.2093 1.91305 15.2093H12.0864C12.4836 15.2093 12.8425 15.3256 13.1633 15.5581C13.4841 15.7907 13.7056 16.1008 13.8278 16.4884L13.9424 16.7674C14.0493 17.0775 14.0074 17.3606 13.8168 17.6167C13.6262 17.8729 13.3778 18.0006 13.0717 18H0.927789Z" fill="#EC602D"/>
</svg>
