<svg width="17" height="17" viewBox="0 0 17 17" fill="none" xmlns="http://www.w3.org/2000/svg">
<path d="M0.5 6.72208V15.6113C0.5 15.847 0.593635 16.073 0.760308 16.2397C0.92698 16.4064 1.15304 16.5 1.38875 16.5H15.6113C15.847 16.5 16.073 16.4064 16.2397 16.2397C16.4064 16.073 16.5 15.847 16.5 15.6113V6.72208M0.5 6.72208H16.5M0.5 6.72208V3.16667C0.5 2.93096 0.593635 2.7049 0.760308 2.53823C0.92698 2.37156 1.15304 2.27792 1.38875 2.27792H15.6113C15.847 2.27792 16.073 2.37156 16.2397 2.53823C16.4064 2.7049 16.5 2.93096 16.5 3.16667V6.72208" stroke="currentColor" stroke-linecap="round" stroke-linejoin="round"/>
<path d="M12.0554 0.5V4.05541M4.94458 0.5V4.05541" stroke="currentColor" stroke-linecap="round" stroke-linejoin="round"/>
</svg>
