<svg width="27" height="25" viewBox="0 0 27 25" fill="none" xmlns="http://www.w3.org/2000/svg">
<path d="M8.24175 13.2C8.24175 11.8872 8.76327 10.6281 9.69157 9.69982C10.6199 8.77152 11.8789 8.25 13.1918 8.25C14.5046 8.25 15.7636 8.77152 16.6919 9.69982C17.6202 10.6281 18.1418 11.8872 18.1418 13.2C18.1418 14.5128 17.6202 15.7719 16.6919 16.7002C15.7636 17.6285 14.5046 18.15 13.1918 18.15C11.8789 18.15 10.6199 17.6285 9.69157 16.7002C8.76327 15.7719 8.24175 14.5128 8.24175 13.2ZM7.88535 1.3629C8.09143 0.953179 8.40729 0.608776 8.79771 0.368118C9.18812 0.12746 9.63772 1.41466e-05 10.0963 0H16.3069C16.7668 1.55348e-05 17.2176 0.12816 17.6087 0.370059C17.9998 0.611958 18.3158 0.958045 18.5212 1.3695L19.4865 3.3H22.275C23.369 3.3 24.4182 3.7346 25.1918 4.50818C25.9654 5.28177 26.4 6.33098 26.4 7.425V20.625C26.4 21.719 25.9654 22.7682 25.1918 23.5418C24.4182 24.3154 23.369 24.75 22.275 24.75H4.125C3.03098 24.75 1.98177 24.3154 1.20818 23.5418C0.434597 22.7682 0 21.719 0 20.625V7.425C0 6.33098 0.434597 5.28177 1.20818 4.50818C1.98177 3.7346 3.03098 3.3 4.125 3.3H6.9135L7.88535 1.3629ZM13.1918 6.6C11.4413 6.6 9.76259 7.29535 8.52485 8.53309C7.28711 9.77083 6.59175 11.4496 6.59175 13.2C6.59175 14.9504 7.28711 16.6292 8.52485 17.8669C9.76259 19.1046 11.4413 19.8 13.1918 19.8C14.9422 19.8 16.6209 19.1046 17.8587 17.8669C19.0964 16.6292 19.7918 14.9504 19.7918 13.2C19.7918 11.4496 19.0964 9.77083 17.8587 8.53309C16.6209 7.29535 14.9422 6.6 13.1918 6.6Z" fill="#F0F0F0"/>
</svg>
