<svg width="16" height="11" viewBox="0 0 16 11" fill="none" xmlns="http://www.w3.org/2000/svg">
<path d="M15.1995 9.53674e-07H0.799109C0.653312 0.00042057 0.5104 0.0373459 0.385756 0.106802C0.261113 0.176258 0.159457 0.275614 0.091733 0.394176C0.0240078 0.512738 -0.00722313 0.646017 0.00140381 0.779666C0.0100307 0.913314 0.0581875 1.04227 0.140691 1.15266L7.34089 10.703C7.6393 11.099 8.35772 11.099 8.65693 10.703L15.8571 1.15266C15.9405 1.0425 15.9894 0.91348 15.9984 0.779609C16.0075 0.645738 15.9765 0.512137 15.9087 0.393324C15.8409 0.27451 15.739 0.175027 15.614 0.105684C15.4889 0.0363407 15.3456 -0.000209808 15.1995 9.53674e-07Z" fill="#F0F0F0"/>
</svg>
