<svg width="18" height="19" viewBox="0 0 18 19" fill="none" xmlns="http://www.w3.org/2000/svg">
<path d="M5.8125 5.86899H12.1875M5.8125 10.1642H9M16.7839 2.40921C17.5 3.49267 17.5 4.99921 17.5 8.01658C17.5 11.034 17.5 12.5405 16.7839 13.624C16.4737 14.0931 16.0751 14.496 15.6109 14.8094C14.6748 15.4419 13.4179 15.5214 11.125 15.5321L9.94988 17.9073C9.86154 18.0855 9.72591 18.2352 9.55816 18.3399C9.39041 18.4446 9.19715 18.5 9 18.5C8.80285 18.5 8.60959 18.4446 8.44184 18.3399C8.27409 18.2352 8.13846 18.0855 8.05012 17.9073L6.875 15.5332C4.58213 15.5224 3.32625 15.4419 2.38912 14.8094C1.92487 14.496 1.52628 14.0931 1.21612 13.624C0.5 12.5405 0.5 11.034 0.5 8.01658C0.5 4.99921 0.5 3.49267 1.21612 2.40921C1.52628 1.94002 1.92487 1.53719 2.38912 1.22374C3.46119 0.5 4.95188 0.5 7.9375 0.5H10.0625C13.0471 0.5 14.5388 0.5 15.6109 1.22374C16.0751 1.53719 16.4737 1.94002 16.7839 2.40921Z" stroke="#D6D6D6" stroke-linecap="round" stroke-linejoin="round"/>
</svg>
