<svg width="20" height="16" viewBox="0 0 20 16" fill="none" xmlns="http://www.w3.org/2000/svg">
<path d="M1.81818 8C0.818182 8 0 7.2 0 6.22222V1.77778C0 0.8 0.818182 0 1.81818 0H9.09091C10.0909 0 10.9091 0.8 10.9091 1.77778V6.22222C10.9091 7.2 10.0909 8 9.09091 8H7.27273V10.6667L4.54545 8H1.81818ZM18.1818 13.3333C19.1818 13.3333 20 12.5333 20 11.5556V7.11111C20 6.13333 19.1818 5.33333 18.1818 5.33333H12.7273V6.22222C12.7273 8.17778 11.0909 9.77778 9.09091 9.77778V11.5556C9.09091 12.5333 9.90909 13.3333 10.9091 13.3333H12.7273V16L15.4545 13.3333H18.1818Z" fill="#A3A3A3"/>
</svg>
