<svg width="17" height="16" viewBox="0 0 17 16" fill="none" xmlns="http://www.w3.org/2000/svg">
<path d="M8.738 14.1685C9.33574 14.1275 9.92849 14.0316 10.5088 13.8822C11.2256 14.0985 11.9822 14.1474 12.7207 14.0253C12.7502 14.0217 12.7798 14.0195 12.8095 14.0187C13.073 14.0187 13.4187 14.1704 13.923 14.4899V13.9646C13.9232 13.8731 13.9479 13.7834 13.9944 13.7047C14.0409 13.6259 14.1075 13.5612 14.1874 13.5171C14.4072 13.3926 14.6102 13.2526 14.7966 13.0971C15.5314 12.4809 15.946 11.6579 15.946 10.7875C15.946 10.5003 15.9007 10.2139 15.8109 9.94088C16.0338 9.52941 16.2114 9.09991 16.3436 8.65241C16.7686 9.2829 16.9972 10.0272 17 10.7875C17 11.9708 16.4447 13.0744 15.4823 13.8812C15.3211 14.0158 15.1527 14.1397 14.977 14.2529V15.4835C14.977 15.9064 14.484 16.15 14.1364 15.8978C13.8071 15.6546 13.4668 15.4268 13.1164 15.2152C13.0152 15.1566 12.9105 15.1044 12.8029 15.0588C12.5105 15.1022 12.2154 15.1241 11.9198 15.1242C10.7204 15.1242 9.61161 14.7667 8.738 14.1685ZM2.39039 11.7082C0.8755 10.4348 0 8.69886 0 6.83868C0 3.03868 3.61911 0 8.03817 0C12.4582 0 16.0782 3.03773 16.0782 6.83868C16.0782 10.6387 12.4582 13.6764 8.03817 13.6764C7.54139 13.6764 7.05185 13.6385 6.56956 13.5626C6.36178 13.611 5.52878 14.1012 4.32933 14.9687C3.89489 15.2835 3.27911 14.9801 3.27911 14.4501V12.3519C2.96803 12.1589 2.67133 11.9434 2.39133 11.7072M6.59883 12.2685C6.63535 12.2685 6.67218 12.2713 6.70933 12.277C7.14378 12.3491 7.58672 12.3854 8.03817 12.386C11.7716 12.386 14.7588 9.87831 14.7588 6.83774C14.7588 3.79811 11.7716 1.29037 8.03911 1.29037C4.30667 1.29037 1.3175 3.80001 1.3175 6.83868C1.3175 8.30825 2.01639 9.69248 3.24983 10.7288C3.56087 10.9892 3.89961 11.223 4.26606 11.4304C4.36546 11.4857 4.44844 11.5666 4.50651 11.6647C4.56459 11.7628 4.59568 11.8747 4.59661 11.9888V13.1986C5.54578 12.5681 6.17006 12.2685 6.59883 12.2685Z" fill="#D6D6D6"/>
<path d="M4.78079 8.00009C5.06259 8.00009 5.33284 7.88771 5.53209 7.68768C5.73135 7.48765 5.84329 7.21636 5.84329 6.93347C5.84329 6.65059 5.73135 6.37929 5.53209 6.17926C5.33284 5.97923 5.06259 5.86685 4.78079 5.86685C4.499 5.86685 4.22875 5.97923 4.02949 6.17926C3.83023 6.37929 3.71829 6.65059 3.71829 6.93347C3.71829 7.21636 3.83023 7.48765 4.02949 7.68768C4.22875 7.88771 4.499 8.00009 4.78079 8.00009ZM8.23463 8.00009C8.51642 8.00009 8.78667 7.88771 8.98593 7.68768C9.18518 7.48765 9.29713 7.21636 9.29713 6.93347C9.29713 6.65059 9.18518 6.37929 8.98593 6.17926C8.78667 5.97923 8.51642 5.86685 8.23463 5.86685C7.95283 5.86685 7.68258 5.97923 7.48333 6.17926C7.28407 6.37929 7.17213 6.65059 7.17213 6.93347C7.17213 7.21636 7.28407 7.48765 7.48333 7.68768C7.68258 7.88771 7.95283 8.00009 8.23463 8.00009ZM11.6875 8.00009C11.9693 8.00009 12.2396 7.88771 12.4388 7.68768C12.6381 7.48765 12.75 7.21636 12.75 6.93347C12.75 6.65059 12.6381 6.37929 12.4388 6.17926C12.2396 5.97923 11.9693 5.86685 11.6875 5.86685C11.4057 5.86685 11.1355 5.97923 10.9362 6.17926C10.737 6.37929 10.625 6.65059 10.625 6.93347C10.625 7.21636 10.737 7.48765 10.9362 7.68768C11.1355 7.88771 11.4057 8.00009 11.6875 8.00009Z" fill="#D6D6D6"/>
</svg>
