<svg width="17" height="17" viewBox="0 0 17 17" fill="none" xmlns="http://www.w3.org/2000/svg">
<path d="M8.5 16.5C6.91775 16.5 5.37104 16.0308 4.05544 15.1518C2.73985 14.2727 1.71447 13.0233 1.10897 11.5615C0.503467 10.0997 0.345041 8.49113 0.653722 6.93928C0.962404 5.38743 1.72433 3.96197 2.84315 2.84315C3.96197 1.72433 5.38743 0.962403 6.93928 0.653721C8.49113 0.34504 10.0997 0.503466 11.5615 1.10897C13.0233 1.71447 14.2727 2.73985 15.1518 4.05544C16.0308 5.37103 16.5 6.91775 16.5 8.5C16.5 9.82267 16.18 11.0698 15.6111 12.1684L16.5 16.5L12.1684 15.6111C11.0698 16.18 9.82178 16.5 8.5 16.5Z" stroke="currentColor" stroke-linecap="round" stroke-linejoin="round"/>
</svg>
