<svg width="17" height="17" viewBox="0 0 17 17" fill="none" xmlns="http://www.w3.org/2000/svg">
<path d="M16.5 8.5C16.5 6.37827 15.6571 4.34344 14.1569 2.84315C12.6566 1.34285 10.6217 0.5 8.5 0.5C6.37827 0.5 4.34344 1.34285 2.84315 2.84315C1.34285 4.34344 0.5 6.37827 0.5 8.5V13.59C0.5 14.438 0.499999 14.86 0.625999 15.199C0.726189 15.4676 0.882963 15.7116 1.08569 15.9143C1.28842 16.117 1.53237 16.2738 1.801 16.374C2.14 16.5 2.563 16.5 3.41 16.5H8.5C10.6217 16.5 12.6566 15.6571 14.1569 14.1569C15.6571 12.6566 16.5 10.6217 16.5 8.5Z" stroke="#D6D6D6"/>
<path d="M11.5 7.5H5.5M8.5 11.5H5.5" stroke="#D6D6D6" stroke-linecap="round" stroke-linejoin="round"/>
</svg>
