<svg width="16" height="16" viewBox="0 0 16 16" fill="none" xmlns="http://www.w3.org/2000/svg">
<rect width="16" height="16" rx="4" fill="#E94E16"/>
<path fill-rule="evenodd" clip-rule="evenodd" d="M12.8023 4.21564C12.9289 4.3536 13 4.54069 13 4.73577C13 4.93085 12.9289 5.11794 12.8023 5.2559L7.74016 10.7701C7.67326 10.843 7.59384 10.9008 7.50642 10.9402C7.41901 10.9797 7.32532 11 7.2307 11C7.13609 11 7.0424 10.9797 6.95498 10.9402C6.86757 10.9008 6.78815 10.843 6.72125 10.7701L4.20618 8.0309C4.14168 7.96303 4.09023 7.88186 4.05483 7.7921C4.01944 7.70234 4.0008 7.60581 4.00003 7.50812C3.99925 7.41044 4.01633 7.31357 4.05029 7.22315C4.08425 7.13274 4.1344 7.0506 4.19781 6.98152C4.26122 6.91245 4.33663 6.85782 4.41963 6.82083C4.50263 6.78384 4.59156 6.76523 4.68124 6.76607C4.77091 6.76692 4.85953 6.78722 4.94193 6.82577C5.02433 6.86433 5.09885 6.92038 5.16115 6.99064L7.23048 9.24478L11.8468 4.21564C11.9096 4.14728 11.984 4.09305 12.066 4.05605C12.148 4.01904 12.2358 4 12.3246 4C12.4133 4 12.5011 4.01904 12.5831 4.05605C12.6651 4.09305 12.7395 4.14728 12.8023 4.21564Z" fill="#F0F0F0"/>
</svg>
