<svg width="16" height="16" viewBox="0 0 16 16" fill="none" xmlns="http://www.w3.org/2000/svg">
<path d="M6.49902 9.7959L6.49316 9.80176L4.37988 7.6875C4.18774 7.49541 3.87604 7.49549 3.68359 7.6875C3.49139 7.8797 3.49139 8.19159 3.68359 8.38379L6.1582 10.8584C6.3504 11.0503 6.66204 11.0504 6.85449 10.8584C6.87649 10.8364 6.89582 10.8123 6.91309 10.7871L6.91406 10.7861L11.8945 5.77441C12.0865 5.58222 12.0865 5.27056 11.8945 5.07812C11.7021 4.88612 11.3906 4.88604 11.1982 5.07812L6.50488 9.80176M8 0.0078125C12.4142 0.0078125 15.9922 3.58606 15.9922 8C15.9922 12.4142 12.4142 15.9922 8 15.9922C3.58606 15.9922 0.0078125 12.4142 0.0078125 8C0.0078125 3.58606 3.58606 0.0078125 8 0.0078125ZM8 0.992188C4.13594 0.992188 0.992188 4.13594 0.992188 8C0.992205 11.8641 4.13592 15.0234 8 15.0234C11.8641 15.0234 15.0078 11.864 15.0078 8C15.0078 4.13595 11.8641 0.992188 8 0.992188Z" fill="#EC602D" stroke="#EC602D" stroke-width="0.015625"/>
</svg>
