<svg width="18" height="18" viewBox="0 0 18 18" fill="none" xmlns="http://www.w3.org/2000/svg">
<path d="M15.0652 18H5.93478C5.15643 18 4.40996 17.6908 3.85958 17.1404C3.3092 16.59 3 15.8436 3 15.0652V5.93478C3 5.15643 3.3092 4.40996 3.85958 3.85958C4.40996 3.3092 5.15643 3 5.93478 3H15.0652C15.8436 3 16.59 3.3092 17.1404 3.85958C17.6908 4.40996 18 5.15643 18 5.93478V15.0652C18 15.8436 17.6908 16.59 17.1404 17.1404C16.59 17.6908 15.8436 18 15.0652 18Z" fill="#EC602D"/>
<path d="M5.27646 1.97867H15C14.7948 1.40042 14.4157 0.899832 13.9147 0.545573C13.4137 0.191313 12.8154 0.000740769 12.2018 0H2.96801C2.18085 0 1.42592 0.3127 0.86931 0.86931C0.3127 1.42592 0 2.18085 0 2.96801V12.2018C0.000740769 12.8154 0.191313 13.4137 0.545573 13.9147C0.899832 14.4157 1.40042 14.7948 1.97867 15V5.27646C1.97867 4.40184 2.32612 3.56303 2.94457 2.94457C3.56303 2.32612 4.40184 1.97867 5.27646 1.97867Z" fill="#EC602D"/>
</svg>
