<svg width="42" height="42" viewBox="0 0 42 42" fill="none" xmlns="http://www.w3.org/2000/svg">
<g filter="url(#filter0_d_5855_32111)">
<circle cx="21" cy="19" r="10" fill="#EB5D29"/>
<circle cx="21" cy="19" r="10.5" stroke="#F0F0F0"/>
</g>
<path d="M20 15C20.2373 15 20.2714 15.3401 20.0684 15.4629C18.9591 16.1337 18.2031 17.4658 18.2031 19C18.2031 20.5341 18.9592 21.8655 20.0684 22.5361C20.2715 22.659 20.2374 23 20 23H15.8008C15.359 23 15.0001 22.6419 15 22.2002V15.7998C15.0001 15.3581 15.359 15 15.8008 15H20ZM23.8223 15C24.836 15 25.8086 15.3995 26.5254 16.1113C27.2422 16.8232 27.6445 17.7892 27.6445 18.7959V21.9248C27.6445 22.3665 27.2864 22.7243 26.8447 22.7256C25.269 22.7297 23.1207 22.7419 23.0225 22.7246C22.911 22.704 19.9934 22.1487 20 18.7959C20.002 17.7892 20.4023 16.8232 21.1191 16.1113C21.8359 15.3995 22.8086 15 23.8223 15ZM23.8223 17.1348C23.3788 17.1348 22.9533 17.3106 22.6396 17.6221C22.3262 17.9335 22.1504 18.3556 22.1504 18.7959C22.1504 19.2362 22.3262 19.6583 22.6396 19.9697C22.9533 20.2812 23.3788 20.457 23.8223 20.457C24.0418 20.457 24.2591 20.4135 24.4619 20.3301C24.6648 20.2466 24.8496 20.1239 25.0049 19.9697C25.16 19.8156 25.2832 19.6329 25.3672 19.4316C25.4512 19.2302 25.4941 19.014 25.4941 18.7959C25.4941 18.5778 25.4512 18.3616 25.3672 18.1602C25.2832 17.9589 25.16 17.7762 25.0049 17.6221C24.8496 17.4679 24.6648 17.3452 24.4619 17.2617C24.2591 17.1783 24.0418 17.1348 23.8223 17.1348ZM16.0215 15.623C15.8009 15.6234 15.6221 15.8028 15.6221 16.0234C15.6223 16.2439 15.801 16.4225 16.0215 16.4229H16.9219C17.1426 16.4228 17.3221 16.2442 17.3223 16.0234C17.3223 15.8025 17.1428 15.6231 16.9219 15.623H16.0215Z" fill="#F0F0F0"/>
<defs>
<filter id="filter0_d_5855_32111" x="0" y="0" width="42" height="42" filterUnits="userSpaceOnUse" color-interpolation-filters="sRGB">
<feFlood flood-opacity="0" result="BackgroundImageFix"/>
<feColorMatrix in="SourceAlpha" type="matrix" values="0 0 0 0 0 0 0 0 0 0 0 0 0 0 0 0 0 0 127 0" result="hardAlpha"/>
<feOffset dy="2"/>
<feGaussianBlur stdDeviation="5"/>
<feComposite in2="hardAlpha" operator="out"/>
<feColorMatrix type="matrix" values="0 0 0 0 0 0 0 0 0 0 0 0 0 0 0 0 0 0 0.15 0"/>
<feBlend mode="normal" in2="BackgroundImageFix" result="effect1_dropShadow_5855_32111"/>
<feBlend mode="normal" in="SourceGraphic" in2="effect1_dropShadow_5855_32111" result="shape"/>
</filter>
</defs>
</svg>
