<svg width="36" height="36" viewBox="0 0 36 36" fill="none" xmlns="http://www.w3.org/2000/svg">
<rect x="0.5" y="0.5" width="35" height="35" rx="17.5" fill="#222222" fill-opacity="0.3"/>
<rect x="0.5" y="0.5" width="35" height="35" rx="17.5" stroke="#767676"/>
<path d="M22.6357 12.001C24.2086 12.001 25.7169 12.622 26.8291 13.7266C27.9412 14.831 28.5664 16.3287 28.5664 17.8906V21.9863C28.5663 23.0908 27.6709 23.9867 26.5664 23.9902C24.241 23.9977 21.5264 24.0106 21.3945 23.9863C21.2216 23.9543 16.6948 23.0928 16.7051 17.8906C16.7082 16.3287 17.3303 14.831 18.4424 13.7266C19.5545 12.6221 21.0629 12.001 22.6357 12.001ZM15.4414 12C16.147 12.0006 16.1537 12.8787 15.6191 13.3398C14.3457 14.4372 13.5323 16.1104 13.5322 17.9844C13.5323 19.8569 14.3443 21.528 15.6162 22.625C16.1638 23.0975 16.1643 23.9984 15.4414 23.999H9.43359C8.32908 23.999 7.43368 23.1035 7.43359 21.999V14C7.43359 12.8954 8.32902 12 9.43359 12H15.4414ZM22.6357 15.3145C21.9477 15.3145 21.2873 15.5852 20.8008 16.0684C20.3142 16.5515 20.0411 17.2073 20.041 17.8906C20.041 18.5739 20.3143 19.2297 20.8008 19.7129C21.2873 20.1961 21.9476 20.4678 22.6357 20.4678C22.9765 20.4678 23.3141 20.401 23.6289 20.2715C23.9437 20.142 24.2298 19.9521 24.4707 19.7129C24.7116 19.4736 24.9028 19.1895 25.0332 18.877C25.1636 18.5643 25.2305 18.229 25.2305 17.8906C25.2304 17.5523 25.1636 17.2169 25.0332 16.9043C24.9028 16.5918 24.7116 16.3076 24.4707 16.0684C24.2298 15.8291 23.9437 15.6392 23.6289 15.5098C23.3141 15.3803 22.9765 15.3145 22.6357 15.3145ZM9.56641 13.3301C9.18562 13.3301 8.87695 13.6397 8.87695 14.0205C8.8772 14.4011 9.18577 14.7099 9.56641 14.71H10.999C11.3503 14.7097 11.6357 14.4246 11.6357 14.0732V13.9668C11.6356 13.6155 11.3503 13.3303 10.999 13.3301H9.56641Z" fill="#7E7E7E"/>
</svg>
