<svg width="80" height="80" viewBox="0 0 80 80" fill="none" xmlns="http://www.w3.org/2000/svg">
<rect x="0.5" y="0.5" width="79" height="79" rx="39.5" fill="#222222" fill-opacity="0.3"/>
<rect x="0.5" y="0.5" width="79" height="79" rx="39.5" stroke="#EE7244"/>
<path d="M37.793 29C38.406 29.0003 38.3807 29.7359 37.8311 30.0078C34.3666 31.7221 31.9659 35.4443 31.9658 39.7607C31.9662 44.0739 34.3637 47.7923 37.8242 49.5078C38.405 49.7958 38.441 50.5749 37.793 50.5752H24C22.3435 50.5751 21.0005 49.2316 21 47.5752V32C21 30.3432 22.3432 29.0001 24 29H37.793ZM48.3359 29C51.1642 29 53.8771 30.1155 55.877 32.1016C57.8767 34.0876 59 36.7812 59 39.5898V47.5527C59 49.2096 57.6578 50.5507 56.001 50.5557C51.7025 50.5686 46.3542 50.5955 46.1045 50.5498C45.7936 50.4923 37.6534 48.9442 37.6719 39.5898C37.6774 36.7811 38.7961 34.0876 40.7959 32.1016C42.7957 30.1155 45.5078 29.0001 48.3359 29ZM48.3359 34.957C47.0987 34.9571 45.912 35.4447 45.0371 36.3135C44.1622 37.1824 43.6709 38.3611 43.6709 39.5898C43.6709 40.8186 44.1622 41.9973 45.0371 42.8662C45.912 43.735 47.0987 44.2235 48.3359 44.2236C48.9486 44.2236 49.556 44.1039 50.1221 43.8711C50.688 43.6382 51.2026 43.2964 51.6357 42.8662C52.0688 42.4361 52.4121 41.9252 52.6465 41.3633C52.8809 40.8011 53.002 40.1983 53.002 39.5898C53.0019 38.9814 52.8809 38.3785 52.6465 37.8164C52.412 37.2545 52.0688 36.7436 51.6357 36.3135C51.2026 35.8833 50.688 35.5424 50.1221 35.3096C49.556 35.0767 48.9486 34.957 48.3359 34.957ZM24.8359 31.3926C24.1512 31.3926 23.5958 31.9472 23.5957 32.6318C23.596 33.3164 24.1513 33.872 24.8359 33.8721H27.4111C28.0431 33.8721 28.5554 33.3594 28.5557 32.7275V32.5371C28.5557 31.905 28.0433 31.3926 27.4111 31.3926H24.8359Z" fill="#EC602D"/>
</svg>
