<svg width="17" height="17" viewBox="0 0 17 17" fill="none" xmlns="http://www.w3.org/2000/svg">
<path d="M8.5 4.61289V9.50178M8.5 12.3871V11.9427M16.5 8.5C16.5 9.55058 16.2931 10.5909 15.891 11.5615C15.489 12.5321 14.8997 13.414 14.1569 14.1569C13.414 14.8997 12.5321 15.489 11.5615 15.891C10.5909 16.2931 9.55058 16.5 8.5 16.5C7.44943 16.5 6.40914 16.2931 5.43853 15.891C4.46793 15.489 3.58601 14.8997 2.84315 14.1569C2.10028 13.414 1.511 12.5321 1.10896 11.5615C0.706926 10.5909 0.5 9.55058 0.5 8.5C0.5 6.37827 1.34285 4.34344 2.84315 2.84315C4.34344 1.34285 6.37827 0.5 8.5 0.5C10.6217 0.5 12.6566 1.34285 14.1569 2.84315C15.6571 4.34344 16.5 6.37827 16.5 8.5Z" stroke="#D6D6D6" stroke-linecap="round" stroke-linejoin="round"/>
</svg>
