<svg width="34" height="25" viewBox="0 0 34 25" fill="none" xmlns="http://www.w3.org/2000/svg">
<path d="M10.2 3.33333C10.2 1.49479 11.7247 0 13.6 0H30.6C32.4753 0 34 1.49479 34 3.33333V15C34 16.8385 32.4753 18.3333 30.6 18.3333H13.6C11.7247 18.3333 10.2 16.8385 10.2 15V3.33333ZM17 5C17 4.07812 16.2403 3.33333 15.3 3.33333C14.3597 3.33333 13.6 4.07812 13.6 5C13.6 5.92188 14.3597 6.66667 15.3 6.66667C16.2403 6.66667 17 5.92188 17 5ZM25.3141 5.59896C25.0803 5.22917 24.6713 5 24.225 5C23.7788 5 23.3697 5.22917 23.1359 5.59896L20.2672 10.1979L19.3163 8.86458C19.0772 8.53125 18.6894 8.33333 18.2697 8.33333C17.85 8.33333 17.4622 8.53125 17.2231 8.86458L14.2481 13.0312C13.9772 13.4115 13.94 13.9115 14.1631 14.3229C14.3863 14.7344 14.8272 15 15.3 15H28.9C29.3622 15 29.7872 14.7552 30.0103 14.3594C30.2334 13.9635 30.2281 13.4844 29.9838 13.0937L25.3088 5.59375L25.3141 5.59896ZM7.65 6.66667V15C7.65 18.224 10.3116 20.8333 13.6 20.8333H23.8V21.6667C23.8 23.5052 22.2753 25 20.4 25H3.4C1.52469 25 0 23.5052 0 21.6667V10C0 8.16146 1.52469 6.66667 3.4 6.66667H7.65ZM2.7625 10.2083V11.4583C2.7625 11.9167 3.145 12.2917 3.6125 12.2917H4.8875C5.355 12.2917 5.7375 11.9167 5.7375 11.4583V10.2083C5.7375 9.75 5.355 9.375 4.8875 9.375H3.6125C3.145 9.375 2.7625 9.75 2.7625 10.2083ZM3.6125 14.375C3.145 14.375 2.7625 14.75 2.7625 15.2083V16.4583C2.7625 16.9167 3.145 17.2917 3.6125 17.2917H4.8875C5.355 17.2917 5.7375 16.9167 5.7375 16.4583V15.2083C5.7375 14.75 5.355 14.375 4.8875 14.375H3.6125ZM3.6125 19.375C3.145 19.375 2.7625 19.75 2.7625 20.2083V21.4583C2.7625 21.9167 3.145 22.2917 3.6125 22.2917H4.8875C5.355 22.2917 5.7375 21.9167 5.7375 21.4583V20.2083C5.7375 19.75 5.355 19.375 4.8875 19.375H3.6125Z" fill="#F0F0F0"/>
</svg>
