<svg width="17" height="17" viewBox="0 0 17 17" fill="none" xmlns="http://www.w3.org/2000/svg"> 
<path d="M0.5 8.5C0.5 4.72905 0.5 2.84274 1.67137 1.67137C2.84274 0.5 4.72821 0.5 8.5 0.5C12.2709 0.5 14.1573 0.5 15.3286 1.67137C16.5 2.84274 16.5 4.72821 16.5 8.5C16.5 12.2709 16.5 14.1573 15.3286 15.3286C14.1573 16.5 12.2718 16.5 8.5 16.5C4.72905 16.5 2.84274 16.5 1.67137 15.3286C0.5 14.1573 0.5 12.2718 0.5 8.5Z" stroke="currentColor"/> 
<path d="M0.5 4.28949H16.5M0.5 12.7105H16.5" stroke="currentColor" stroke-linejoin="round"/> 
<path d="M8.50001 12.7105V4.28947M5.13159 4.28947V0.921051M11.8684 4.28947V0.921051M5.13159 16.0789V12.7105M11.8684 16.0789V12.7105" stroke="currentColor" stroke-linecap="round" stroke-linejoin="round"/> 
</svg>