<svg width="57" height="57" viewBox="0 0 57 57" fill="none" xmlns="http://www.w3.org/2000/svg">
<circle cx="28.5" cy="28.5" r="28.5" fill="#E94E16"/>
<circle cx="28.5" cy="28.5" r="28" stroke="url(#paint0_linear_3215_18476)" stroke-opacity="0.5"/>
<path d="M29 36.0008H37.0001H29ZM37.1741 21.8125C37.4359 21.5508 37.6436 21.24 37.7853 20.898C37.927 20.556 38 20.1895 38 19.8193C38 19.4491 37.9272 19.0825 37.7856 18.7405C37.6439 18.3985 37.4363 18.0877 37.1746 17.8259C36.9129 17.5641 36.6022 17.3564 36.2602 17.2147C35.9182 17.073 35.5516 17 35.1814 17C34.8113 17 34.4447 17.0728 34.1027 17.2144C33.7606 17.3561 33.4499 17.5637 33.1881 17.8254L19.842 31.1747C19.6098 31.4062 19.4381 31.6912 19.3419 32.0047L18.0209 36.3568C17.9951 36.4433 17.9931 36.5352 18.0153 36.6227C18.0374 36.7102 18.0829 36.7901 18.1467 36.8538C18.2106 36.9176 18.2906 36.9629 18.3781 36.9849C18.4656 37.0069 18.5575 37.0048 18.6439 36.9788L22.997 35.6588C23.3102 35.5636 23.5952 35.3929 23.827 35.1618L37.1741 21.8125Z" fill="#F0F0F0"/>
<path d="M29 36.0008H37.0001M37.1741 21.8125C37.4359 21.5508 37.6436 21.24 37.7853 20.898C37.927 20.556 38 20.1895 38 19.8193C38 19.4491 37.9272 19.0825 37.7856 18.7405C37.6439 18.3985 37.4363 18.0877 37.1746 17.8259C36.9129 17.5641 36.6022 17.3564 36.2602 17.2147C35.9182 17.073 35.5516 17 35.1814 17C34.8113 17 34.4447 17.0728 34.1027 17.2144C33.7606 17.3561 33.4499 17.5637 33.1881 17.8254L19.842 31.1747C19.6098 31.4062 19.4381 31.6912 19.3419 32.0047L18.0209 36.3568C17.9951 36.4433 17.9931 36.5352 18.0153 36.6227C18.0374 36.7102 18.0829 36.7901 18.1467 36.8538C18.2106 36.9176 18.2906 36.9629 18.3781 36.9849C18.4656 37.0069 18.5575 37.0048 18.6439 36.9788L22.997 35.6588C23.3102 35.5636 23.5952 35.3929 23.827 35.1618L37.1741 21.8125Z" stroke="#D6D6D6" stroke-linecap="round" stroke-linejoin="round"/>
<defs>
<linearGradient id="paint0_linear_3215_18476" x1="0" y1="0" x2="76.2375" y2="88.35" gradientUnits="userSpaceOnUse">
<stop stop-color="white" stop-opacity="0"/>
<stop offset="0.552885" stop-color="white"/>
</linearGradient>
</defs>
</svg>
