<svg width="15" height="16" viewBox="0 0 15 16" fill="none" xmlns="http://www.w3.org/2000/svg">
<path d="M0 7.50222C0 3.33262 3.38372 0 7.5 0C11.6163 0 15 3.33262 15 7.50222V10.5202C15 10.5854 14.9969 10.6497 14.9906 10.7132C14.9969 10.7559 15 10.7996 15 10.8444C15 11.5449 14.9152 12.3083 14.8326 12.8914C14.7028 13.8041 14.1729 14.7093 13.2028 15.1008C12.1587 15.5225 10.3458 16 7.5 16C7.26871 16 7.04689 15.9064 6.88334 15.7397C6.71979 15.573 6.62791 15.3469 6.62791 15.1111C6.62791 14.8754 6.71979 14.6493 6.88334 14.4826C7.04689 14.3159 7.26871 14.2222 7.5 14.2222C10.1522 14.2222 11.7436 13.7778 12.5606 13.4482C12.8264 13.3408 13.0455 13.0652 13.1062 12.6368C13.1138 12.5825 13.1214 12.5273 13.1288 12.4711C12.6384 12.5824 12.0719 12.6898 11.5085 12.7499C10.7683 12.8292 10.0465 12.3744 9.91151 11.5552C9.83267 11.0788 9.76744 10.3915 9.76744 9.42187C9.76744 8.45298 9.83267 7.76604 9.91151 7.28924C10.0465 6.47004 10.7683 6.01529 11.5085 6.09458C11.8057 6.12622 12.104 6.17102 12.391 6.22258C11.8231 4.08782 9.86616 2.48889 7.5 2.48889C5.13384 2.48889 3.17721 4.08782 2.60895 6.22258C2.90161 6.16957 3.19597 6.12687 3.49151 6.09458C4.23174 6.01529 4.95349 6.47004 5.08884 7.28924C5.16733 7.76569 5.23256 8.45298 5.23256 9.42222C5.23256 10.3915 5.16733 11.0784 5.08884 11.5552C4.95349 12.3744 4.23174 12.8292 3.49151 12.7499C2.72477 12.6681 1.95314 12.4992 1.37407 12.3516C0.53686 12.138 0 11.3643 0 10.5205V7.50222Z" fill="#A3A3A3"/>
</svg>
