<svg width="17" height="17" viewBox="0 0 17 17" fill="none" xmlns="http://www.w3.org/2000/svg">
<path d="M12.5003 8.34401C12.5003 8.06721 12.5003 7.92881 12.5419 7.80561C12.6627 7.44721 12.9819 7.30881 13.3019 7.16321C13.6603 6.99921 13.8395 6.91761 14.0179 6.90321C14.2195 6.88721 14.4219 6.93041 14.5947 7.02721C14.8235 7.15521 14.9835 7.40001 15.1467 7.59841C15.9011 8.51521 16.2787 8.97361 16.4163 9.47841C16.5283 9.88641 16.5283 10.3136 16.4163 10.7208C16.2155 11.4584 15.5795 12.076 15.1083 12.6488C14.8675 12.9408 14.7467 13.0872 14.5947 13.1728C14.4189 13.2703 14.2182 13.3134 14.0179 13.2968C13.8395 13.2824 13.6603 13.2008 13.3011 13.0368C12.9811 12.8912 12.6627 12.7528 12.5419 12.3944C12.5003 12.2712 12.5003 12.1328 12.5003 11.8568V8.34401ZM4.50032 8.34401C4.50032 7.99521 4.49072 7.68241 4.20912 7.43761C4.10672 7.34881 3.97072 7.28721 3.69952 7.16321C3.34032 7.00001 3.16112 6.91761 2.98272 6.90321C2.44912 6.86001 2.16192 7.22481 1.85472 7.59921C1.09952 8.51521 0.721917 8.97361 0.583517 9.47921C0.472161 9.88586 0.472161 10.315 0.583517 10.7216C0.785117 11.4584 1.42192 12.0768 1.89232 12.6488C2.18912 13.0088 2.47312 13.3376 2.98272 13.2968C3.16112 13.2824 3.34032 13.2008 3.69952 13.0368C3.97152 12.9136 4.10672 12.8512 4.20912 12.7624C4.49072 12.5176 4.50032 12.2048 4.50032 11.8568V8.34401Z" stroke="currentColor"/>
<path d="M14.9003 7.3V6.1C14.9003 3.0072 12.0347 0.5 8.50031 0.5C4.96591 0.5 2.10031 3.0072 2.10031 6.1V7.3M14.9003 12.9C14.9003 16.5 11.7003 16.5 8.50031 16.5" stroke="currentColor" stroke-linecap="round" stroke-linejoin="round"/>
</svg>
