<svg width="17" height="19" viewBox="0 0 17 19" fill="none" xmlns="http://www.w3.org/2000/svg">
<path d="M14.3666 18.5H2.63335C2.3523 18.5 2.07402 18.4438 1.81449 18.3346C1.55497 18.2253 1.31932 18.0653 1.12108 17.8635C0.922842 17.6618 0.765925 17.4224 0.659345 17.1591C0.552764 16.8958 0.498621 16.6138 0.500027 16.3292V6.19896C0.500027 5.85516 0.660026 5.53837 0.926692 5.33047L7.84222 0.717129C8.02657 0.576226 8.25125 0.5 8.48222 0.5C8.7132 0.5 8.93788 0.576226 9.12222 0.717129L16.0733 5.33047C16.34 5.53837 16.5 5.85516 16.5 6.19896V16.3292C16.5014 16.6138 16.4472 16.8958 16.3407 17.1591C16.2341 17.4224 16.0772 17.6618 15.8789 17.8635C15.6807 18.0653 15.445 18.2253 15.1855 18.3346C14.926 18.4438 14.6477 18.5 14.3666 18.5Z" stroke="currentColor" stroke-miterlimit="10" stroke-linejoin="round"/>
<path d="M6.54445 9.50012H10.4556C10.8467 9.50012 11.1667 9.82412 11.1667 10.2201V18.5H5.83334V10.2201C5.83334 9.82412 6.15334 9.50012 6.54445 9.50012Z" stroke="currentColor" stroke-miterlimit="10" stroke-linejoin="round"/>
</svg>
