<svg xmlns="http://www.w3.org/2000/svg" fill="none" viewBox="0 0 23 31">
  <path fill="#EC602D" d="M4 9a1 1 0 0 1 1-1h12a1 1 0 0 1 1 1v19.879a1 1 0 0 1-1.636.771l-4.86-4.008a1 1 0 0 0-1.288.013L5.652 29.58A1 1 0 0 1 4 28.822z"></path>

  <!-- foreignObject 제거 -->
  <circle cx="11.5" cy="11.5" r="11.5" fill="#fff" fill-opacity="0.2"></circle>

  <path fill="#D9D9D9" d="M11.025 7.788a.5.5 0 0 1 .95 0l.575 1.767a.5.5 0 0 0 .475.345h1.858a.5.5 0 0 1 .294.905l-1.503 1.092a.5.5 0 0 0-.182.559l.574 1.766a.5.5 0 0 1-.769.56l-1.503-1.093a.5.5 0 0 0-.588 0l-1.503 1.092a.5.5 0 0 1-.77-.559l.575-1.766a.5.5 0 0 0-.182-.56l-1.503-1.091a.5.5 0 0 1 .294-.905h1.858a.5.5 0 0 0 .476-.345z"></path>
</svg>
