<svg width="94" height="94" viewBox="0 0 94 94" fill="none" xmlns="http://www.w3.org/2000/svg">
<rect width="94" height="94" rx="47" fill="#484848" fill-opacity="0.36"/>
<path d="M56.6992 33.502C59.9615 33.502 63.0906 34.7892 65.3975 37.0801C67.7041 39.371 68.9999 42.4781 69 45.7178V55.3633C69 57.0201 67.6578 58.3605 66.001 58.3652C60.9718 58.3795 54.4183 58.4148 54.124 58.3604C53.7616 58.2933 44.3762 56.5058 44.3975 45.7178C44.4039 42.4779 45.6941 39.371 48.001 37.0801C50.3079 34.7891 53.4368 33.502 56.6992 33.502ZM44.832 33.5C45.4317 33.5001 45.4007 34.2141 44.8525 34.457C40.6226 36.3308 37.6505 40.7545 37.6504 45.9131C37.6505 51.0685 40.619 55.4902 44.8447 57.3662C45.4297 57.6261 45.4723 58.3876 44.832 58.3877H28C26.3432 58.3877 25.0001 57.0444 25 55.3877V36.5C25 34.8431 26.3431 33.5 28 33.5H44.832ZM56.6992 40.373C55.272 40.373 53.9028 40.9363 52.8936 41.9385C51.8843 42.9407 51.3174 44.3004 51.3174 45.7178C51.3174 47.1352 51.8843 48.4948 52.8936 49.4971C53.9028 50.4994 55.2719 51.0625 56.6992 51.0625C57.4058 51.0625 58.106 50.9248 58.7588 50.6562C59.4116 50.3877 60.0042 49.9933 60.5039 49.4971C61.0036 49.0009 61.4004 48.412 61.6709 47.7637C61.9414 47.1152 62.0811 46.4196 62.0811 45.7178C62.081 45.016 61.9413 44.3212 61.6709 43.6729C61.4004 43.0244 61.0036 42.4348 60.5039 41.9385C60.0043 41.4425 59.4114 41.0488 58.7588 40.7803C58.106 40.5117 57.4058 40.3731 56.6992 40.373ZM29.4258 36.2607C28.6358 36.2607 27.9951 36.9014 27.9951 37.6914C27.9954 38.4811 28.636 39.1211 29.4258 39.1211H32.3965C33.1255 39.121 33.7167 38.5299 33.7168 37.8008V37.5811C33.7168 36.8519 33.1256 36.2608 32.3965 36.2607H29.4258Z" fill="#707070"/>
</svg>
