<svg width="32" height="32" viewBox="0 0 32 32" fill="none" xmlns="http://www.w3.org/2000/svg">
<path d="M24.4 8.375H22.4968L21.2968 7.1875C20.602 6.49994 19.3828 6 18.4 6H13.6C12.6172 6 11.398 6.49994 10.7032 7.1875L9.5032 8.375H7.6C5.6152 8.375 4 9.97337 4 11.9375V21.4375C4 23.4016 5.6152 25 7.6 25H24.4C26.3848 25 28 23.4016 28 21.4375V11.9375C28 9.97337 26.3848 8.375 24.4 8.375ZM16 20.25C14.8859 20.2498 13.8176 19.8117 13.0299 19.0321C12.2423 18.2524 11.7998 17.195 11.8 16.0926C11.8002 14.9901 12.2429 13.9329 13.0308 13.1534C13.8186 12.374 14.8871 11.9362 16.0012 11.9363C17.1153 11.9365 18.1836 12.3746 18.9713 13.1542C19.759 13.9339 20.2014 14.9913 20.2012 16.0938C20.201 17.1962 19.7583 18.2535 18.9704 19.0329C18.1826 19.8124 17.1141 20.2502 16 20.25ZM23.2 14.6676C22.9951 14.6676 22.7923 14.6276 22.603 14.5501C22.4137 14.4725 22.2418 14.3588 22.0969 14.2154C21.9521 14.0721 21.8371 13.9019 21.7587 13.7146C21.6803 13.5273 21.64 13.3265 21.64 13.1238C21.64 12.9211 21.6803 12.7203 21.7587 12.533C21.8371 12.3457 21.9521 12.1756 22.0969 12.0322C22.2418 11.8889 22.4137 11.7752 22.603 11.6976C22.7923 11.62 22.9951 11.5801 23.2 11.5801C23.6137 11.5801 24.0105 11.7427 24.3031 12.0322C24.5956 12.3217 24.76 12.7144 24.76 13.1238C24.76 13.5332 24.5956 13.9259 24.3031 14.2154C24.0105 14.5049 23.6137 14.6676 23.2 14.6676Z" fill="#E94E16"/>
</svg>
