<svg width="49" height="50" viewBox="0 0 49 50" fill="none" xmlns="http://www.w3.org/2000/svg">
<path d="M7.0625 6.16667H9.125C9.67728 6.16667 10.125 5.71895 10.125 5.16667V3.66667C10.125 2.75 10.86 2 11.7583 2H20.7417C21.64 2 22.375 2.75 22.375 3.66667V5.16667C22.375 5.71895 22.8227 6.16667 23.375 6.16667H25.4375C26.2497 6.16667 27.0287 6.49591 27.603 7.08196C28.1773 7.66801 28.5 8.46286 28.5 9.29167V9.33333C28.5 9.88562 28.9477 10.3333 29.5 10.3333H43.8333C44.3856 10.3333 44.8333 10.781 44.8333 11.3333V40.5833C44.8333 41.1356 44.3856 41.5833 43.8333 41.5833H29.5C28.9477 41.5833 28.5 42.031 28.5 42.5833V42.625C28.5 43.4538 28.1773 44.2487 27.603 44.8347C27.0287 45.4208 26.2497 45.75 25.4375 45.75H7.0625C6.25027 45.75 5.47132 45.4208 4.89699 44.8347C4.32266 44.2487 4 43.4538 4 42.625V9.29167C4 8.46286 4.32266 7.66801 4.89699 7.08196C5.47132 6.49591 6.25027 6.16667 7.0625 6.16667ZM37.6667 14.5C37.1144 14.5 36.6667 14.9477 36.6667 15.5V17.6667C36.6667 18.219 37.1144 18.6667 37.6667 18.6667H39.75C40.3023 18.6667 40.75 18.219 40.75 17.6667V15.5C40.75 14.9477 40.3023 14.5 39.75 14.5H37.6667ZM29.5 14.5C28.9477 14.5 28.5 14.9477 28.5 15.5V17.6667C28.5 18.219 28.9477 18.6667 29.5 18.6667H31.5833C32.1356 18.6667 32.5833 18.219 32.5833 17.6667V15.5C32.5833 14.9477 32.1356 14.5 31.5833 14.5H29.5ZM21.3333 14.5C20.781 14.5 20.3333 14.9477 20.3333 15.5V17.6667C20.3333 18.219 20.781 18.6667 21.3333 18.6667H23.4167C23.969 18.6667 24.4167 18.219 24.4167 17.6667V15.5C24.4167 14.9477 23.969 14.5 23.4167 14.5H21.3333ZM29.5 33.25C28.9477 33.25 28.5 33.6977 28.5 34.25V36.4167C28.5 36.9689 28.9477 37.4167 29.5 37.4167H31.5833C32.1356 37.4167 32.5833 36.9689 32.5833 36.4167V34.25C32.5833 33.6977 32.1356 33.25 31.5833 33.25H29.5ZM37.6667 33.25C37.1144 33.25 36.6667 33.6977 36.6667 34.25V36.4167C36.6667 36.9689 37.1144 37.4167 37.6667 37.4167H39.75C40.3023 37.4167 40.75 36.9689 40.75 36.4167V34.25C40.75 33.6977 40.3023 33.25 39.75 33.25H37.6667ZM21.3333 33.25C20.781 33.25 20.3333 33.6977 20.3333 34.25V36.4167C20.3333 36.9689 20.781 37.4167 21.3333 37.4167H23.4167C23.969 37.4167 24.4167 36.9689 24.4167 36.4167V34.25C24.4167 33.6977 23.969 33.25 23.4167 33.25H21.3333Z" fill="#E94E16"/>
</svg>
