<svg width="32" height="32" viewBox="0 0 32 32" fill="none" xmlns="http://www.w3.org/2000/svg">
<circle cx="16" cy="16" r="12" fill="#E94E16"/>
<path d="M13.2754 9.56806C13.6221 8.82514 14.6785 8.82514 15.0252 9.56806L16.2537 12.2003C16.3496 12.4058 16.5148 12.571 16.7203 12.6669L19.3525 13.8954C20.0954 14.2421 20.0954 15.2985 19.3525 15.6452L16.7203 16.8737C16.5148 16.9696 16.3496 17.1348 16.2537 17.3403L15.0252 19.9725C14.6785 20.7154 13.6221 20.7154 13.2754 19.9725L12.0469 17.3403C11.951 17.1348 11.7858 16.9696 11.5803 16.8737L8.94806 15.6452C8.20514 15.2985 8.20514 14.2421 8.94806 13.8954L11.5803 12.6669C11.7858 12.571 11.951 12.4058 12.0469 12.2003L13.2754 9.56806Z" fill="#F0F0F0"/>
<path d="M19.8683 17.243C20.0417 16.8716 20.5699 16.8716 20.7432 17.243L21.3085 18.4542C21.3565 18.557 21.439 18.6396 21.5418 18.6875L22.753 19.2528C23.1245 19.4262 23.1245 19.9544 22.753 20.1277L21.5418 20.693C21.439 20.741 21.3565 20.8236 21.3085 20.9263L20.7432 22.1375C20.5699 22.509 20.0417 22.509 19.8683 22.1375L19.303 20.9263C19.2551 20.8236 19.1725 20.741 19.0697 20.693L17.8585 20.1277C17.487 19.9544 17.487 19.4262 17.8585 19.2528L19.0697 18.6875C19.1725 18.6396 19.2551 18.557 19.303 18.4542L19.8683 17.243Z" fill="#F0F0F0"/>
</svg>
