<svg width="14" height="17" viewBox="0 0 14 17" fill="none" xmlns="http://www.w3.org/2000/svg">
<path d="M13.5 6.9C13.5 9.73348 9.32244 14.1938 7.66551 15.8514C7.29401 16.2231 6.70599 16.2231 6.33449 15.8514C4.67757 14.1938 0.5 9.73348 0.5 6.9C0.5 5.20261 1.18482 3.57475 2.40381 2.37452C3.62279 1.17428 5.27609 0.5 7 0.5C8.72391 0.5 10.3772 1.17428 11.5962 2.37452C12.8152 3.57475 13.5 5.20261 13.5 6.9Z" stroke="#D6D6D6"/>
<path d="M7.00027 7.70416C7.21576 7.70416 7.42243 7.61987 7.5748 7.46984C7.72717 7.31981 7.81277 7.11633 7.81277 6.90416C7.81277 6.69198 7.72717 6.4885 7.5748 6.33847C7.42243 6.18844 7.21576 6.10416 7.00027 6.10416C6.78479 6.10416 6.57812 6.18844 6.42575 6.33847C6.27338 6.4885 6.18777 6.69198 6.18777 6.90416C6.18777 7.11633 6.27338 7.31981 6.42575 7.46984C6.57812 7.61987 6.78479 7.70416 7.00027 7.70416Z" fill="#D6D6D6" stroke="#D6D6D6" stroke-linecap="round" stroke-linejoin="round"/>
</svg>
