<svg width="13" height="16" viewBox="0 0 13 16" fill="none" xmlns="http://www.w3.org/2000/svg">
<path d="M5.13861 14.9895C5.2241 15.0598 5.31031 15.129 5.39718 15.1971C6.04462 15.7051 6.9546 15.7041 7.60217 15.1963C7.68916 15.1281 7.77557 15.0592 7.86139 14.9895C8.593 14.3904 9.28153 13.7408 9.92189 13.0455C11.3981 11.4357 13 9.10201 13 6.4824C13 5.63112 12.8319 4.78817 12.5052 4.00169C12.1786 3.21521 11.6998 2.5006 11.0962 1.89865C10.4926 1.2967 9.77606 0.819214 8.98744 0.493443C8.19883 0.167672 7.35359 0 6.5 0C5.64641 0 4.80117 0.167672 4.01256 0.493443C3.22394 0.819214 2.50739 1.2967 1.90381 1.89865C1.30022 2.5006 0.821438 3.21521 0.494783 4.00169C0.168127 4.78817 -1.27195e-08 5.63112 0 6.4824C0 9.10201 1.60189 11.4349 3.07811 13.0455C3.71845 13.741 4.40697 14.3901 5.13861 14.9895ZM6.5 8.82326C5.87748 8.82326 5.28045 8.57664 4.84026 8.13764C4.40007 7.69864 4.15278 7.10323 4.15278 6.4824C4.15278 5.86156 4.40007 5.26615 4.84026 4.82716C5.28045 4.38816 5.87748 4.14153 6.5 4.14153C7.12252 4.14153 7.71955 4.38816 8.15974 4.82716C8.59993 5.26615 8.84722 5.86156 8.84722 6.4824C8.84722 7.10323 8.59993 7.69864 8.15974 8.13764C7.71955 8.57664 7.12252 8.82326 6.5 8.82326Z" fill="#A3A3A3"/>
</svg>
