<svg width="12" height="12" viewBox="0 0 12 12" fill="none" xmlns="http://www.w3.org/2000/svg">
<g clip-path="url(#clip0_6228_33176)">
<path d="M10 5.5C10 7.13638 7.80498 9.6409 6.66699 10.8294C6.29944 11.2132 5.70056 11.2132 5.33301 10.8294C4.19502 9.6409 2 7.13638 2 5.5C2 4.43913 2.42143 3.42172 3.17157 2.67157C3.92172 1.92143 4.93913 1.5 6 1.5C7.06087 1.5 8.07828 1.92143 8.82843 2.67157C9.57857 3.42172 10 4.43913 10 5.5Z" stroke="#F0F0F0"/>
<path d="M6.00024 6.00293C6.13285 6.00293 6.26003 5.95025 6.3538 5.85648C6.44757 5.76271 6.50024 5.63554 6.50024 5.50293C6.50024 5.37032 6.44757 5.24314 6.3538 5.14938C6.26003 5.05561 6.13285 5.00293 6.00024 5.00293C5.86764 5.00293 5.74046 5.05561 5.64669 5.14938C5.55292 5.24314 5.50024 5.37032 5.50024 5.50293C5.50024 5.63554 5.55292 5.76271 5.64669 5.85648C5.74046 5.95025 5.86764 6.00293 6.00024 6.00293Z" fill="#F0F0F0" stroke="#F0F0F0" stroke-linecap="round" stroke-linejoin="round"/>
</g>
<defs>
<clipPath id="clip0_6228_33176">
<rect width="12" height="12" fill="white"/>
</clipPath>
</defs>
</svg>
