<svg width="17" height="19" viewBox="0 0 17 19" fill="none" xmlns="http://www.w3.org/2000/svg">
<path d="M7.63689 0.729694C7.90093 0.579051 8.19798 0.5 8.5 0.5C8.80202 0.5 9.09907 0.579051 9.36311 0.729694L16.0431 4.54138C16.1816 4.62051 16.297 4.73622 16.3773 4.87655C16.4577 5.01688 16.5 5.17672 16.5 5.33952V12.8597C16.5001 13.1856 16.4153 13.5055 16.2545 13.7863C16.0937 14.0672 15.8626 14.2987 15.5853 14.4569L9.36311 18.0074C9.09907 18.1581 8.80202 18.2371 8.5 18.2371C8.19798 18.2371 7.90093 18.1581 7.63689 18.0074L1.41467 14.456C1.13765 14.2979 0.906784 14.0667 0.745969 13.7862C0.585153 13.5057 0.500233 13.1862 0.5 12.8606V5.33952C0.499993 5.17672 0.542349 5.01688 0.62268 4.87655C0.703011 4.73622 0.818397 4.62051 0.956889 4.54138L7.63689 0.729694Z" stroke="currentColor" stroke-linecap="round" stroke-linejoin="round"/>
<path d="M0.5 4.80203L8.5 9.36803M8.5 9.36803L16.5 4.80203M8.5 9.36803V18.5" stroke="currentColor" stroke-linejoin="round"/>
<path d="M4.49999 7.08501L12.5 2.51901M3.16666 9.66753L5.83332 11.1944" stroke="currentColor" stroke-linecap="round" stroke-linejoin="round"/>
</svg>
