<svg width="28" height="28" viewBox="0 0 28 28" fill="none" xmlns="http://www.w3.org/2000/svg">
<path d="M20.0156 5.32188L13.0969 9.9375C12.1875 10.5437 11.6094 11.5281 11.5156 12.6031C13.4625 13.0031 14.9969 14.5375 15.4 16.4875C16.4781 16.3938 17.4594 15.8156 18.0656 14.9062L22.6781 7.98438C22.8875 7.66875 23 7.3 23 6.91875C23 5.85938 22.1406 5 21.0812 5C20.7031 5 20.3313 5.1125 20.0156 5.32188ZM14 17.5C14 15.5656 12.4344 14 10.5 14C8.56562 14 7 15.5656 7 17.5C7 17.6219 7.00625 17.7438 7.01875 17.8625C7.075 18.4094 6.7 19 6.15 19H6C5.44687 19 5 19.4469 5 20C5 20.5531 5.44687 21 6 21H10.5C12.4344 21 14 19.4344 14 17.5Z" fill="#EC602D"/>
</svg>
