<svg width="18" height="16" viewBox="0 0 18 16" fill="none" xmlns="http://www.w3.org/2000/svg">
<path d="M17.2737 6.88625L17.2677 6.88356L1.25074 0.0702667C1.11602 0.0124373 0.969426 -0.0102427 0.824067 0.00425552C0.678708 0.0187538 0.53912 0.0699781 0.417789 0.153346C0.2896 0.239491 0.184304 0.356968 0.111376 0.495209C0.0384475 0.63345 0.000174427 0.788117 2.04773e-07 0.945294V5.30274C7.14361e-05 5.51761 0.0732291 5.72573 0.206864 5.89121C0.340499 6.0567 0.526238 6.1692 0.732069 6.20931L9.46776 7.8659C9.50209 7.87257 9.53306 7.89132 9.55535 7.91892C9.57764 7.94652 9.58983 7.98122 9.58983 8.01706C9.58983 8.05289 9.57764 8.0876 9.55535 8.11519C9.53306 8.14279 9.50209 8.16154 9.46776 8.16821L0.732444 9.82481C0.526671 9.86481 0.340942 9.97716 0.207247 10.1425C0.0735527 10.3078 0.000262533 10.5158 2.04773e-07 10.7306V15.0888C-9.93957e-05 15.2389 0.0361362 15.3867 0.105455 15.5189C0.174775 15.651 0.275008 15.7635 0.397162 15.8461C0.544101 15.9463 0.716544 15.9998 0.892959 16C1.0156 15.9999 1.13699 15.9747 1.24999 15.9258L17.2666 9.15132L17.2737 9.14786C17.4893 9.05284 17.673 8.89507 17.8021 8.69409C17.9312 8.49311 18 8.25772 18 8.01706C18 7.77639 17.9312 7.54101 17.8021 7.34002C17.673 7.13904 17.4893 6.98128 17.2737 6.88625Z" fill="#E94E16"/>
</svg>
