<svg width="32" height="32" viewBox="0 0 32 32" fill="none" xmlns="http://www.w3.org/2000/svg">
<path d="M17 25.0008H25.0001H17ZM25.1741 10.8125C25.4359 10.5508 25.6436 10.24 25.7853 9.89804C25.927 9.55604 26 9.18949 26 8.8193C26 8.44911 25.9272 8.08254 25.7856 7.74051C25.6439 7.39848 25.4363 7.0877 25.1746 6.8259C24.9129 6.5641 24.6022 6.35642 24.2602 6.21471C23.9182 6.07301 23.5516 6.00005 23.1814 6C22.8113 5.99995 22.4447 6.07282 22.1027 6.21444C21.7606 6.35607 21.4499 6.56367 21.1881 6.8254L7.84195 20.1747C7.60977 20.4062 7.43806 20.6912 7.34195 21.0047L6.02093 25.3568C5.99509 25.4433 5.99314 25.5352 6.01529 25.6227C6.03743 25.7102 6.08286 25.7901 6.14673 25.8538C6.21061 25.9176 6.29056 25.9629 6.3781 25.9849C6.46564 26.0069 6.5575 26.0048 6.64394 25.9788L10.997 24.6588C11.3102 24.5636 11.5952 24.3929 11.827 24.1618L25.1741 10.8125Z" fill="#EC602D"/>
<path d="M17 25.0008H25.0001M25.1741 10.8125C25.4359 10.5508 25.6436 10.24 25.7853 9.89804C25.927 9.55604 26 9.18949 26 8.8193C26 8.44911 25.9272 8.08254 25.7856 7.74051C25.6439 7.39848 25.4363 7.0877 25.1746 6.8259C24.9129 6.5641 24.6022 6.35642 24.2602 6.21471C23.9182 6.07301 23.5516 6.00005 23.1814 6C22.8113 5.99995 22.4447 6.07282 22.1027 6.21444C21.7606 6.35607 21.4499 6.56367 21.1881 6.8254L7.84195 20.1747C7.60977 20.4062 7.43806 20.6912 7.34195 21.0047L6.02093 25.3568C5.99509 25.4433 5.99314 25.5352 6.01529 25.6227C6.03743 25.7102 6.08286 25.7901 6.14673 25.8538C6.21061 25.9176 6.29056 25.9629 6.3781 25.9849C6.46564 26.0069 6.5575 26.0048 6.64394 25.9788L10.997 24.6588C11.3102 24.5636 11.5952 24.3929 11.827 24.1618L25.1741 10.8125Z" stroke="#EC602D" stroke-linecap="round" stroke-linejoin="round"/>
</svg>
