<svg width="21" height="21" viewBox="0 0 21 21" fill="none" xmlns="http://www.w3.org/2000/svg">
<path d="M11.5 19.5008H19.5001ZM19.6741 5.31249C19.9359 5.05076 20.1436 4.74003 20.2853 4.39804C20.427 4.05604 20.5 3.68949 20.5 3.3193C20.5 2.94911 20.4272 2.58254 20.2856 2.24051C20.1439 1.89848 19.9363 1.5877 19.6746 1.3259C19.4129 1.0641 19.1022 0.856423 18.7602 0.714715C18.4182 0.573007 18.0516 0.500046 17.6814 0.5C17.3113 0.499954 16.9447 0.572822 16.6027 0.714444C16.2606 0.856067 15.9499 1.06367 15.6881 1.3254L2.34195 14.6747C2.10977 14.9062 1.93806 15.1912 1.84195 15.5047L0.520935 19.8568C0.49509 19.9433 0.493138 20.0352 0.515286 20.1227C0.537434 20.2102 0.582855 20.2901 0.646732 20.3538C0.710609 20.4176 0.790558 20.4629 0.878096 20.4849C0.965635 20.5069 1.0575 20.5048 1.14394 20.4788L5.49698 19.1588C5.81015 19.0636 6.09516 18.8929 6.32699 18.6618L19.6741 5.31249Z" fill="#EC602D"/>
<path d="M11.5 19.5008H19.5001M19.6741 5.31249C19.9359 5.05076 20.1436 4.74003 20.2853 4.39804C20.427 4.05604 20.5 3.68949 20.5 3.3193C20.5 2.94911 20.4272 2.58254 20.2856 2.24051C20.1439 1.89848 19.9363 1.5877 19.6746 1.3259C19.4129 1.0641 19.1022 0.856423 18.7602 0.714715C18.4182 0.573007 18.0516 0.500046 17.6814 0.5C17.3113 0.499954 16.9447 0.572822 16.6027 0.714444C16.2606 0.856067 15.9499 1.06367 15.6881 1.3254L2.34195 14.6747C2.10977 14.9062 1.93806 15.1912 1.84195 15.5047L0.520935 19.8568C0.49509 19.9433 0.493138 20.0352 0.515286 20.1227C0.537434 20.2102 0.582855 20.2901 0.646732 20.3538C0.710609 20.4176 0.790558 20.4629 0.878096 20.4849C0.965635 20.5069 1.0575 20.5048 1.14394 20.4788L5.49698 19.1588C5.81015 19.0636 6.09516 18.8929 6.32699 18.6618L19.6741 5.31249Z" stroke="#EC602D" stroke-linecap="round" stroke-linejoin="round"/>
</svg>
