<svg width="17" height="17" viewBox="0 0 17 17" fill="none" xmlns="http://www.w3.org/2000/svg">
<path d="M9.30003 15.7006H15.7001M15.8393 4.34999C16.0487 4.14061 16.2149 3.89202 16.3282 3.61843C16.4416 3.34483 16.5 3.05159 16.5 2.75544C16.5 2.45929 16.4417 2.16603 16.3284 1.89241C16.2152 1.61878 16.0491 1.37016 15.8397 1.16072C15.6303 0.951283 15.3817 0.785138 15.1081 0.671772C14.8345 0.558405 14.5413 0.500037 14.2452 0.5C13.949 0.499963 13.6558 0.558258 13.3821 0.671555C13.1085 0.784853 12.8599 0.950936 12.6505 1.16032L1.97356 11.8398C1.78781 12.025 1.65045 12.253 1.57356 12.5038L0.516748 15.9855C0.496072 16.0546 0.49451 16.1281 0.512229 16.1981C0.529947 16.2681 0.566284 16.332 0.617386 16.3831C0.668487 16.4341 0.732446 16.4703 0.802477 16.4879C0.872508 16.5055 0.945999 16.5039 1.01515 16.4831L4.49758 15.427C4.74812 15.3508 4.97613 15.2143 5.16159 15.0294L15.8393 4.34999Z" stroke="#D6D6D6" stroke-linecap="round" stroke-linejoin="round"/>
</svg>
