<svg width="18" height="18" viewBox="0 0 18 18" fill="none" xmlns="http://www.w3.org/2000/svg">
<path fill-rule="evenodd" clip-rule="evenodd" d="M0 3C0 2.20435 0.31607 1.44129 0.87868 0.87868C1.44129 0.31607 2.20435 0 3 0H15C15.7956 0 16.5587 0.31607 17.1213 0.87868C17.6839 1.44129 18 2.20435 18 3V15C18 15.7956 17.6839 16.5587 17.1213 17.1213C16.5587 17.6839 15.7956 18 15 18H3C2.20435 18 1.44129 17.6839 0.87868 17.1213C0.31607 16.5587 0 15.7956 0 15V3ZM15.75 11.5605C15.75 11.362 15.6712 11.1716 15.531 11.031L14.031 9.531C13.9613 9.46115 13.8786 9.40574 13.7874 9.36793C13.6963 9.33012 13.5987 9.31066 13.5 9.31066C13.4013 9.31066 13.3037 9.33012 13.2126 9.36793C13.1214 9.40574 13.0387 9.46115 12.969 9.531L11.031 11.469C10.9613 11.5388 10.8786 11.5943 10.7874 11.6321C10.6963 11.6699 10.5987 11.6893 10.5 11.6893C10.4013 11.6893 10.3037 11.6699 10.2126 11.6321C10.1214 11.5943 10.0387 11.5388 9.969 11.469L6.531 8.031C6.46133 7.96116 6.37857 7.90574 6.28745 7.86793C6.19633 7.83012 6.09865 7.81066 6 7.81066C5.90135 7.81066 5.80367 7.83012 5.71255 7.86793C5.62143 7.90574 5.53867 7.96116 5.469 8.031L2.469 11.031C2.3288 11.1716 2.25004 11.362 2.25 11.5605V15C2.25 15.1989 2.32902 15.3897 2.46967 15.5303C2.61032 15.671 2.80109 15.75 3 15.75H15C15.1989 15.75 15.3897 15.671 15.5303 15.5303C15.671 15.3897 15.75 15.1989 15.75 15V11.5605ZM15 4.5C15 4.89782 14.842 5.27936 14.5607 5.56066C14.2794 5.84196 13.8978 6 13.5 6C13.1022 6 12.7206 5.84196 12.4393 5.56066C12.158 5.27936 12 4.89782 12 4.5C12 4.10218 12.158 3.72064 12.4393 3.43934C12.7206 3.15804 13.1022 3 13.5 3C13.8978 3 14.2794 3.15804 14.5607 3.43934C14.842 3.72064 15 4.10218 15 4.5Z" fill="#EC602D"/>
</svg>
