<svg width="17" height="17" viewBox="0 0 17 17" fill="none" xmlns="http://www.w3.org/2000/svg">
<path d="M16.3401 13.8242C16.4436 13.4798 16.5001 13.1136 16.5001 12.7353V4.26471C16.5001 3.26624 16.1034 2.30868 15.3974 1.60266C14.6914 0.896637 13.7338 0.5 12.7354 0.5H4.26477C3.2663 0.5 2.30874 0.896637 1.60272 1.60266C0.896698 2.30868 0.500061 3.26624 0.500061 4.26471V12.8012C0.517336 13.7882 0.921587 14.7289 1.62574 15.4207C2.3299 16.1126 3.27762 16.5002 4.26477 16.5H12.7354L12.8455 16.4981M16.3401 13.8242L16.2572 13.7264L13.9363 10.9254C13.7602 10.7129 13.5395 10.5418 13.2899 10.4241C13.0403 10.3064 12.7679 10.245 12.4919 10.2443C12.216 10.2436 11.9432 10.3035 11.693 10.4199C11.4428 10.5363 11.2213 10.7063 11.0441 10.9179L9.80924 12.3918L9.60783 12.6374M16.3401 13.8242C16.1118 14.5803 15.6515 15.2445 15.0243 15.7245C14.3972 16.2045 13.6349 16.4752 12.8455 16.4981M9.60783 12.6374L12.7579 16.3984L12.8455 16.4981M9.60783 12.6374L6.57065 9.01106C6.39397 8.8002 6.17323 8.63063 5.92395 8.51428C5.67467 8.39793 5.40292 8.33764 5.12783 8.33764C4.85273 8.33764 4.58098 8.39793 4.3317 8.51428C4.08243 8.63063 3.86168 8.8002 3.685 9.01106L0.66759 12.6129L0.501002 12.8021" stroke="#707070" stroke-linecap="round" stroke-linejoin="round"/>
<path d="M11.4096 4.67905C11.913 4.67923 12.3207 5.08772 12.3207 5.59116C12.3206 6.09444 11.9129 6.5021 11.4096 6.50229C10.9062 6.50229 10.4977 6.09455 10.4975 5.59116C10.4975 5.0876 10.9061 4.67905 11.4096 4.67905Z" stroke="#707070"/>
</svg>
