<svg width="24" height="24" viewBox="0 0 24 24" fill="none" xmlns="http://www.w3.org/2000/svg">
<path d="M8.40015 17C8.68348 17 8.92115 16.904 9.11315 16.712C9.30515 16.52 9.40081 16.2827 9.40015 16C9.39948 15.7173 9.30348 15.48 9.11215 15.288C8.92081 15.096 8.68348 15 8.40015 15C8.11681 15 7.87948 15.096 7.68815 15.288C7.49681 15.48 7.40081 15.7173 7.40015 16C7.39948 16.2827 7.49548 16.5203 7.68815 16.713C7.88081 16.9057 8.11815 17.0013 8.40015 17ZM8.40015 13C8.68348 13 8.92115 12.904 9.11315 12.712C9.30515 12.52 9.40081 12.2827 9.40015 12C9.39948 11.7173 9.30348 11.48 9.11215 11.288C8.92081 11.096 8.68348 11 8.40015 11C8.11681 11 7.87948 11.096 7.68815 11.288C7.49681 11.48 7.40081 11.7173 7.40015 12C7.39948 12.2827 7.49548 12.5203 7.68815 12.713C7.88081 12.9057 8.11815 13.0013 8.40015 13ZM8.40015 9C8.68348 9 8.92115 8.904 9.11315 8.712C9.30515 8.52 9.40081 8.28267 9.40015 8C9.39948 7.71733 9.30348 7.48 9.11215 7.288C8.92081 7.096 8.68348 7 8.40015 7C8.11681 7 7.87948 7.096 7.68815 7.288C7.49681 7.48 7.40081 7.71733 7.40015 8C7.39948 8.28267 7.49548 8.52033 7.68815 8.713C7.88081 8.90567 8.11815 9.00133 8.40015 9ZM11.4001 17H17.4001V15H11.4001V17ZM11.4001 13H17.4001V11H11.4001V13ZM11.4001 9H17.4001V7H11.4001V9ZM5.40015 21C4.85015 21 4.37948 20.8043 3.98815 20.413C3.59681 20.0217 3.40081 19.5507 3.40015 19V5C3.40015 4.45 3.59615 3.97933 3.98815 3.588C4.38015 3.19667 4.85081 3.00067 5.40015 3H19.4001C19.9501 3 20.4211 3.196 20.8131 3.588C21.2051 3.98 21.4008 4.45067 21.4001 5V19C21.4001 19.55 21.2045 20.021 20.8131 20.413C20.4218 20.805 19.9508 21.0007 19.4001 21H5.40015Z" fill="#E94E16"/>
</svg>
