<svg width="17" height="17" viewBox="0 0 17 17" fill="none" xmlns="http://www.w3.org/2000/svg">
<path d="M3.92857 14.2143H1.64286C1.33975 14.2143 1.04906 14.0939 0.834735 13.8796C0.620408 13.6652 0.5 13.3745 0.5 13.0714V8.5C0.5 8.1969 0.620408 7.90621 0.834735 7.69188C1.04906 7.47755 1.33975 7.35714 1.64286 7.35714H15.3571C15.6602 7.35714 15.9509 7.47755 16.1653 7.69188C16.3796 7.90621 16.5 8.1969 16.5 8.5V13.0714C16.5 13.3745 16.3796 13.6652 16.1653 13.8796C15.9509 14.0939 15.6602 14.2143 15.3571 14.2143H13.0714M3.92857 7.35714V1.64286C3.92857 1.33975 4.04898 1.04906 4.26331 0.834735C4.47763 0.620408 4.76832 0.5 5.07143 0.5H11.9286C12.2317 0.5 12.5224 0.620408 12.7367 0.834735C12.951 1.04906 13.0714 1.33975 13.0714 1.64286V7.35714M3.92857 11.9286H13.0714V16.5H3.92857V11.9286Z" stroke="currentColor"/>
</svg>
