<svg width="22" height="22" viewBox="0 0 22 22" fill="none" xmlns="http://www.w3.org/2000/svg">
<circle cx="11" cy="11" r="11" fill="#E94E16"/>
<path d="M14.6651 11.9373C14.8385 11.5659 15.3667 11.5659 15.54 11.9373L16.0156 12.9563C16.0635 13.059 16.1461 13.1416 16.2489 13.1896L17.2678 13.6651C17.6392 13.8385 17.6392 14.3667 17.2678 14.54L16.2489 15.0156C16.1461 15.0635 16.0635 15.1461 16.0156 15.2489L15.54 16.2678C15.3667 16.6392 14.8385 16.6392 14.6651 16.2678L14.1896 15.2489C14.1416 15.1461 14.059 15.0635 13.9563 15.0156L12.9373 14.54C12.5659 14.3667 12.5659 13.8385 12.9373 13.6651L13.9563 13.1896C14.059 13.1416 14.1416 13.059 14.1896 12.9563L14.6651 11.9373Z" fill="#F0F0F0"/>
<path d="M8.61226 4.8747C8.95898 4.13178 10.0154 4.13178 10.3621 4.8747L11.4029 7.10485C11.4988 7.31035 11.664 7.47553 11.8695 7.57144L14.0997 8.61226C14.8426 8.95898 14.8426 10.0154 14.0997 10.3621L11.8695 11.4029C11.664 11.4988 11.4988 11.664 11.4029 11.8695L10.3621 14.0997C10.0154 14.8426 8.95898 14.8426 8.61226 14.0997L7.57144 11.8695C7.47553 11.664 7.31035 11.4988 7.10485 11.4029L4.8747 10.3621C4.13178 10.0154 4.13178 8.95898 4.8747 8.61226L7.10485 7.57144C7.31035 7.47553 7.47553 7.31035 7.57144 7.10485L8.61226 4.8747Z" fill="#F0F0F0"/>
</svg>
