<svg width="17" height="17" viewBox="0 0 17 17" fill="none" xmlns="http://www.w3.org/2000/svg">
<path d="M16.5 8.5H0.5M12.5 0.5H14.5C15.0304 0.5 15.5391 0.710714 15.9142 1.08579C16.2893 1.46086 16.5 1.96957 16.5 2.5V4.5M4.5 16.5H2.5C1.96957 16.5 1.46086 16.2893 1.08579 15.9142C0.710714 15.5391 0.5 15.0304 0.5 14.5V12.5M16.5 12.5V14.5C16.5 15.0304 16.2893 15.5391 15.9142 15.9142C15.5391 16.2893 15.0304 16.5 14.5 16.5H12.5M0.5 4.5V2.5C0.5 1.96957 0.710714 1.46086 1.08579 1.08579C1.46086 0.710714 1.96957 0.5 2.5 0.5H4.5" stroke="#707070" stroke-linecap="round" stroke-linejoin="round"/>
</svg>
