<svg width="18" height="19" viewBox="0 0 18 19" fill="none" xmlns="http://www.w3.org/2000/svg">
<path d="M0.5 2.8652L8.60405 0.5L16.7 2.8652V7.7153C16.7 12.8129 13.4375 16.8885 8.60135 18.5C3.76385 16.889 0.5 12.812 0.5 7.71305V2.8652Z" stroke="#D6D6D6" stroke-linejoin="round"/>
<path d="M8.6001 9.05078C9.84274 9.05078 10.8501 8.04342 10.8501 6.80078C10.8501 5.55814 9.84274 4.55078 8.6001 4.55078C7.35746 4.55078 6.3501 5.55814 6.3501 6.80078C6.3501 8.04342 7.35746 9.05078 8.6001 9.05078Z" stroke="#D6D6D6" stroke-linecap="round" stroke-linejoin="round"/>
<path d="M12.2 12.6508C12.2 11.696 11.8207 10.7803 11.1456 10.1052C10.4705 9.43007 9.55478 9.05078 8.6 9.05078C7.64522 9.05078 6.72955 9.43007 6.05442 10.1052C5.37928 10.7803 5 11.696 5 12.6508" stroke="#D6D6D6" stroke-linecap="round" stroke-linejoin="round"/>
</svg>
