<svg width="16" height="16" viewBox="0 0 16 16" fill="none" xmlns="http://www.w3.org/2000/svg">
<path d="M13.3333 16C12.5926 16 11.963 15.7667 11.4444 15.3C10.9259 14.8333 10.6667 14.2667 10.6667 13.6C10.6667 13.52 10.6889 13.3333 10.7333 13.04L4.48889 9.76C4.25185 9.96 3.97778 10.1168 3.66667 10.2304C3.35556 10.344 3.02222 10.4005 2.66667 10.4C1.92593 10.4 1.2963 10.1667 0.777778 9.7C0.259259 9.23333 0 8.66667 0 8C0 7.33333 0.259259 6.76667 0.777778 6.3C1.2963 5.83333 1.92593 5.6 2.66667 5.6C3.02222 5.6 3.35556 5.6568 3.66667 5.7704C3.97778 5.884 4.25185 6.04053 4.48889 6.24L10.7333 2.96C10.7037 2.86667 10.6853 2.7768 10.6782 2.6904C10.6711 2.604 10.6673 2.5072 10.6667 2.4C10.6667 1.73333 10.9259 1.16667 11.4444 0.7C11.963 0.233333 12.5926 0 13.3333 0C14.0741 0 14.7037 0.233333 15.2222 0.7C15.7407 1.16667 16 1.73333 16 2.4C16 3.06667 15.7407 3.63333 15.2222 4.1C14.7037 4.56667 14.0741 4.8 13.3333 4.8C12.9778 4.8 12.6444 4.7432 12.3333 4.6296C12.0222 4.516 11.7481 4.35947 11.5111 4.16L5.26667 7.44C5.2963 7.53333 5.31496 7.62347 5.32267 7.7104C5.33037 7.79733 5.33393 7.89387 5.33333 8C5.33274 8.10613 5.32919 8.20293 5.32267 8.2904C5.31615 8.37787 5.29748 8.46773 5.26667 8.56L11.5111 11.84C11.7481 11.64 12.0222 11.4835 12.3333 11.3704C12.6444 11.2573 12.9778 11.2005 13.3333 11.2C14.0741 11.2 14.7037 11.4333 15.2222 11.9C15.7407 12.3667 16 12.9333 16 13.6C16 14.2667 15.7407 14.8333 15.2222 15.3C14.7037 15.7667 14.0741 16 13.3333 16Z" fill="#D6D6D6"/>
</svg>
