<svg width="19" height="13" viewBox="0 0 19 13" fill="none" xmlns="http://www.w3.org/2000/svg">
<path d="M11.5 7.5L12.5 5.5M1.5 0.5H6.926C7.10063 0.500123 7.27219 0.545976 7.4236 0.632996C7.57501 0.720016 7.70098 0.845168 7.789 0.996L8.853 2.819C9.05743 3.16957 9.33087 3.47502 9.65677 3.71686C9.98266 3.9587 10.3542 4.13191 10.749 4.226L15.426 5.34C16.3012 5.54826 17.0806 6.04546 17.6384 6.7513C18.1961 7.45713 18.4997 8.33038 18.5 9.23V11.5C18.5 11.7652 18.3946 12.0196 18.2071 12.2071C18.0196 12.3946 17.7652 12.5 17.5 12.5H1.5C1.23478 12.5 0.98043 12.3946 0.792893 12.2071C0.605357 12.0196 0.5 11.7652 0.5 11.5V1.5C0.5 1.23478 0.605357 0.98043 0.792893 0.792893C0.98043 0.605357 1.23478 0.5 1.5 0.5Z" stroke="#F0F0F0" stroke-linecap="round" stroke-linejoin="round"/>
<path d="M5.5 12.5V11.5C5.5 10.4391 5.07857 9.42172 4.32843 8.67157C3.57828 7.92143 2.56087 7.5 1.5 7.5H0.5M7.5 6.5L9 3.5" stroke="#F0F0F0" stroke-linecap="round" stroke-linejoin="round"/>
</svg>
