<svg width="53" height="50" viewBox="0 0 53 50" fill="none" xmlns="http://www.w3.org/2000/svg">
<path d="M41.9323 29.6859C42.1057 29.3145 42.6338 29.3145 42.8072 29.6859L45.6781 35.8346C45.7261 35.9373 45.8087 36.0199 45.9115 36.0678L52.0624 38.9372C52.434 39.1105 52.434 39.6388 52.0624 39.8122L45.9115 42.6815C45.8087 42.7295 45.7261 42.812 45.6781 42.9148L42.8072 49.0635C42.6338 49.4348 42.1057 49.4348 41.9323 49.0635L39.0614 42.9148C39.0135 42.812 38.9308 42.7295 38.8281 42.6815L32.6771 39.8122C32.3056 39.6388 32.3056 39.1105 32.6771 38.9372L38.8281 36.0678C38.9308 36.0199 39.0135 35.9373 39.0614 35.8346L41.9323 29.6859Z" fill="#E94E16"/>
<path d="M21.3526 1.87369C21.6994 1.13097 22.7555 1.13097 23.1023 1.87369L29.1517 14.8297C29.2476 15.0352 29.4128 15.2003 29.6183 15.2962L42.5792 21.3423C43.3223 21.6889 43.3223 22.7456 42.5792 23.0923L29.6183 29.1384C29.4128 29.2342 29.2476 29.3994 29.1517 29.6049L23.1023 42.5609C22.7555 43.3036 21.6994 43.3036 21.3526 42.5609L15.3032 29.6049C15.2073 29.3994 15.0421 29.2342 14.8366 29.1384L1.87571 23.0923C1.13258 22.7456 1.13259 21.6889 1.87571 21.3423L14.8366 15.2962C15.0421 15.2003 15.2073 15.0352 15.3032 14.8297L21.3526 1.87369Z" fill="#E94E16"/>
</svg>
