<svg width="17" height="17" viewBox="0 0 17 17" fill="none" xmlns="http://www.w3.org/2000/svg">
<path d="M6.22279 3.22642C7.23637 1.40881 7.74275 0.5 8.50034 0.5C9.25792 0.5 9.76431 1.40881 10.7779 3.22642L11.0403 3.69682C11.3283 4.21362 11.4723 4.47203 11.6963 4.64243C11.9203 4.81283 12.2002 4.87603 12.7602 5.00243L13.269 5.11763C15.237 5.56323 16.2202 5.78563 16.4545 6.53844C16.6881 7.29044 16.0178 8.07525 14.6762 9.64406L14.329 10.0497C13.9482 10.4953 13.757 10.7185 13.6714 10.9937C13.5858 11.2697 13.6146 11.5673 13.6722 12.1617L13.725 12.7033C13.9274 14.7969 14.029 15.8433 13.4162 16.3081C12.8034 16.7729 11.8819 16.3489 10.0403 15.5009L9.56271 15.2817C9.03952 15.0401 8.77793 14.9201 8.50034 14.9201C8.22274 14.9201 7.96115 15.0401 7.43796 15.2817L6.96117 15.5009C5.11881 16.3489 4.19724 16.7729 3.58525 16.3089C2.97167 15.8433 3.07326 14.7969 3.27566 12.7033L3.32846 12.1625C3.38606 11.5673 3.41486 11.2697 3.32846 10.9945C3.24366 10.7185 3.05246 10.4953 2.67167 10.0505L2.32448 9.64406C0.982913 8.07605 0.312528 7.29124 0.546123 6.53844C0.779717 5.78563 1.76449 5.56243 3.73245 5.11763L4.24124 5.00243C4.80042 4.87603 5.07962 4.81283 5.30441 4.64243C5.52921 4.47203 5.6724 4.21362 5.9604 3.69682L6.22279 3.22642Z" stroke="currentColor"/>
</svg>
