<svg viewBox="0 0 24 24" fill="none" xmlns="http://www.w3.org/2000/svg" preserveAspectRatio="xMidYMid meet">
  <path
    transform="translate(-1 0.5)"
    d="M3.50001 11.4998C3.50001 6.25352 7.75363 2 13 2C18.2464 2 22.5 6.25352 22.5 11.4998C22.5 16.746 18.2464 20.9995 13 20.9995C11.4437 21.0018 9.91085 20.62 8.53738 19.8881L4.76113 20.9623C4.59162 21.0105 4.41232 21.0125 4.24176 20.9682C4.07121 20.9238 3.91559 20.8348 3.79098 20.7102C3.66637 20.5856 3.5773 20.4299 3.53297 20.2594C3.48863 20.0888 3.49065 19.9095 3.5388 19.74L4.6123 15.9639C3.87984 14.59 3.49778 13.0567 3.50001 11.4998ZM9.43751 9.71857C9.43751 10.0463 9.70351 10.3123 10.0313 10.3123H15.9688C16.1262 10.3123 16.2772 10.2497 16.3886 10.1384C16.4999 10.0271 16.5625 9.87603 16.5625 9.71857C16.5625 9.5611 16.4999 9.41008 16.3886 9.29873C16.2772 9.18738 16.1262 9.12483 15.9688 9.12483H10.0313C9.87378 9.12483 9.72276 9.18738 9.61141 9.29873C9.50006 9.41008 9.43751 9.5611 9.43751 9.71857ZM10.0313 12.6872C9.87378 12.6872 9.72276 12.7498 9.61141 12.8611C9.50006 12.9725 9.43751 13.1235 9.43751 13.281C9.43751 13.4384 9.50006 13.5895 9.61141 13.7008C9.72276 13.8122 9.87378 13.8747 10.0313 13.8747H13.5938C13.7512 13.8747 13.9022 13.8122 14.0136 13.7008C14.1249 13.5895 14.1875 13.4384 14.1875 13.281C14.1875 13.1235 14.1249 12.9725 14.0136 12.8611C13.9022 12.7498 13.7512 12.6872 13.5938 12.6872H10.0313Z"
    fill="#BDBDBD"
  />
</svg>