<svg width="18" height="16" viewBox="0 0 18 16" fill="none" xmlns="http://www.w3.org/2000/svg">
<path fill-rule="evenodd" clip-rule="evenodd" d="M9.9 0C10.1204 3.23106e-05 10.3332 0.089956 10.4979 0.252715C10.6627 0.415474 10.7679 0.639749 10.7937 0.883L10.8 1C10.8003 1.25488 10.8881 1.50003 11.0456 1.68537C11.203 1.8707 11.4183 1.98223 11.6473 1.99717C11.8763 2.01211 12.1017 1.92933 12.2776 1.76574C12.4536 1.60214 12.5666 1.3701 12.5937 1.117L12.6 1C12.6 0.734784 12.6948 0.48043 12.8636 0.292893C13.0324 0.105357 13.2613 0 13.5 0H15.3C16.0161 0 16.7028 0.316071 17.2092 0.87868C17.7155 1.44129 18 2.20435 18 3V13C18 13.7956 17.7155 14.5587 17.2092 15.1213C16.7028 15.6839 16.0161 16 15.3 16H13.5C13.2796 16 13.0668 15.91 12.9021 15.7473C12.7373 15.5845 12.6321 15.3603 12.6063 15.117L12.6 15C12.5997 14.7451 12.5119 14.5 12.3544 14.3146C12.197 14.1293 11.9817 14.0178 11.7527 14.0028C11.5237 13.9879 11.2983 14.0707 11.1224 14.2343C10.9464 14.3979 10.8334 14.6299 10.8063 14.883L10.8 15C10.8 15.2652 10.7052 15.5196 10.5364 15.7071C10.3676 15.8946 10.1387 16 9.9 16H2.7C1.98392 16 1.29716 15.6839 0.790812 15.1213C0.284464 14.5587 0 13.7956 0 13V3C0 2.20435 0.284464 1.44129 0.790812 0.87868C1.29716 0.316071 1.98392 0 2.7 0H9.9ZM11.7 9C11.4613 9 11.2324 9.10536 11.0636 9.29289C10.8948 9.48043 10.8 9.73478 10.8 10V11C10.8 11.2652 10.8948 11.5196 11.0636 11.7071C11.2324 11.8946 11.4613 12 11.7 12C11.9387 12 12.1676 11.8946 12.3364 11.7071C12.5052 11.5196 12.6 11.2652 12.6 11V10C12.6 9.73478 12.5052 9.48043 12.3364 9.29289C12.1676 9.10536 11.9387 9 11.7 9ZM11.7 4C11.4796 4.00003 11.2668 4.08996 11.1021 4.25272C10.9373 4.41547 10.8321 4.63975 10.8063 4.883L10.8 5V6C10.8003 6.25488 10.8881 6.50003 11.0456 6.68537C11.203 6.8707 11.4183 6.98224 11.6473 6.99717C11.8763 7.01211 12.1017 6.92933 12.2776 6.76574C12.4536 6.60215 12.5666 6.3701 12.5937 6.117L12.6 6V5C12.6 4.73478 12.5052 4.48043 12.3364 4.29289C12.1676 4.10536 11.9387 4 11.7 4Z" fill="#A3A3A3"/>
</svg>
