<svg width="19" height="15" viewBox="0 0 19 15" fill="none" xmlns="http://www.w3.org/2000/svg">
<path d="M12.5 0.5V2.5M12.5 6.5V8.5M12.5 12.5V14.5M2.5 0.5H16.5C17.0304 0.5 17.5391 0.710714 17.9142 1.08579C18.2893 1.46086 18.5 1.96957 18.5 2.5V5.5C17.9696 5.5 17.4609 5.71071 17.0858 6.08579C16.7107 6.46086 16.5 6.96957 16.5 7.5C16.5 8.03043 16.7107 8.53914 17.0858 8.91421C17.4609 9.28929 17.9696 9.5 18.5 9.5V12.5C18.5 13.0304 18.2893 13.5391 17.9142 13.9142C17.5391 14.2893 17.0304 14.5 16.5 14.5H2.5C1.96957 14.5 1.46086 14.2893 1.08579 13.9142C0.710714 13.5391 0.5 13.0304 0.5 12.5V9.5C1.03043 9.5 1.53914 9.28929 1.91421 8.91421C2.28929 8.53914 2.5 8.03043 2.5 7.5C2.5 6.96957 2.28929 6.46086 1.91421 6.08579C1.53914 5.71071 1.03043 5.5 0.5 5.5V2.5C0.5 1.96957 0.710714 1.46086 1.08579 1.08579C1.46086 0.710714 1.96957 0.5 2.5 0.5Z" stroke="#D6D6D6" stroke-linecap="round" stroke-linejoin="round"/>
</svg>
