<svg width="21" height="16" viewBox="0 0 21 16" fill="none" xmlns="http://www.w3.org/2000/svg">
<path d="M18 13.1562C18 13.7779 17.7366 14.374 17.2678 14.8135C16.7989 15.2531 16.163 15.5 15.5 15.5C14.837 15.5 14.2011 15.2531 13.7322 14.8135C13.2634 14.374 13 13.7779 13 13.1562C13 12.5346 13.2634 11.9385 13.7322 11.499C14.2011 11.0594 14.837 10.8125 15.5 10.8125C16.163 10.8125 16.7989 11.0594 17.2678 11.499C17.7366 11.9385 18 12.5346 18 13.1562ZM8 13.1562C8 13.7779 7.73661 14.374 7.26777 14.8135C6.79893 15.2531 6.16304 15.5 5.5 15.5C4.83696 15.5 4.20107 15.2531 3.73223 14.8135C3.26339 14.374 3 13.7779 3 13.1562C3 12.5346 3.26339 11.9385 3.73223 11.499C4.20107 11.0594 4.83696 10.8125 5.5 10.8125C6.16304 10.8125 6.79893 11.0594 7.26777 11.499C7.73661 11.9385 8 12.5346 8 13.1562Z" stroke="#F0F0F0"/>
<path d="M13 13.1562H8M18 13.1562H18.763C18.983 13.1562 19.093 13.1563 19.185 13.145C19.516 13.1064 19.8239 12.9653 20.0599 12.7443C20.2959 12.5232 20.4465 12.2347 20.488 11.9244C20.5 11.8372 20.5 11.7341 20.5 11.5278V8.9375C20.5 7.32134 19.8152 5.77137 18.5962 4.62857C17.3772 3.48577 15.7239 2.84375 14 2.84375M13.5 11.2812V3.3125C13.5 1.98687 13.5 1.32406 13.06 0.9125C12.622 0.5 11.915 0.5 10.5 0.5H3.5C2.086 0.5 1.379 0.5 0.94 0.9125C0.5 1.32313 0.5 1.98594 0.5 3.3125V10.8125C0.5 11.6891 0.5 12.1269 0.701 12.4531C0.832647 12.6669 1.02199 12.8444 1.25 12.9678C1.598 13.1562 2.065 13.1562 3 13.1562" stroke="#F0F0F0" stroke-linecap="round" stroke-linejoin="round"/>
</svg>
