<svg width="24" height="17" viewBox="0 0 24 17" fill="none" xmlns="http://www.w3.org/2000/svg">
<path d="M5.45455 17C4.54545 17 3.77273 16.6901 3.13636 16.0703C2.5 15.4505 2.18182 14.6979 2.18182 13.8125H1.09091C0.781818 13.8125 0.522909 13.7105 0.314182 13.5065C0.105455 13.3025 0.000727273 13.0503 0 12.75V2.125C0 1.54062 0.213818 1.04054 0.641455 0.62475C1.06909 0.208958 1.58255 0.000708333 2.18182 0H15.2727C15.8727 0 16.3865 0.20825 16.8142 0.62475C17.2418 1.04125 17.4553 1.54133 17.4545 2.125V4.25H19.6364C19.9818 4.25 20.3091 4.32544 20.6182 4.47631C20.9273 4.62719 21.1818 4.83508 21.3818 5.1L23.7818 8.20781C23.8545 8.29635 23.9091 8.39375 23.9455 8.5C23.9818 8.60625 24 8.72135 24 8.84531V12.75C24 13.051 23.8953 13.3036 23.6858 13.5076C23.4764 13.7116 23.2175 13.8132 22.9091 13.8125H21.8182C21.8182 14.6979 21.5 15.4505 20.8636 16.0703C20.2273 16.6901 19.4545 17 18.5455 17C17.6364 17 16.8636 16.6901 16.2273 16.0703C15.5909 15.4505 15.2727 14.6979 15.2727 13.8125H8.72727C8.72727 14.6979 8.40909 15.4505 7.77273 16.0703C7.13636 16.6901 6.36364 17 5.45455 17ZM5.45455 14.875C5.76364 14.875 6.02291 14.773 6.23236 14.569C6.44182 14.365 6.54618 14.1128 6.54545 13.8125C6.54473 13.5122 6.44 13.26 6.23127 13.056C6.02255 12.852 5.76364 12.75 5.45455 12.75C5.14545 12.75 4.88655 12.852 4.67782 13.056C4.46909 13.26 4.36436 13.5122 4.36364 13.8125C4.36291 14.1128 4.46764 14.3654 4.67782 14.5701C4.888 14.7748 5.14691 14.8764 5.45455 14.875ZM18.5455 14.875C18.8545 14.875 19.1138 14.773 19.3233 14.569C19.5327 14.365 19.6371 14.1128 19.6364 13.8125C19.6356 13.5122 19.5309 13.26 19.3222 13.056C19.1135 12.852 18.8545 12.75 18.5455 12.75C18.2364 12.75 17.9775 12.852 17.7687 13.056C17.56 13.26 17.4553 13.5122 17.4545 13.8125C17.4538 14.1128 17.5585 14.3654 17.7687 14.5701C17.9789 14.7748 18.2378 14.8764 18.5455 14.875ZM17.4545 9.5625H22.0909L19.6364 6.375H17.4545V9.5625Z" fill="#EC602D"/>
</svg>
