<svg width="144" height="87" viewBox="0 0 144 87" fill="none" xmlns="http://www.w3.org/2000/svg">
<mask id="path-1-inside-1_2692_12259" fill="white">
<path d="M63.8018 0C65.6356 0.000195776 65.5954 2.20633 63.9482 3.0127C50.9597 9.36956 41.7666 25.0997 41.7666 43.5C41.7667 61.9 50.9599 77.6295 63.9482 83.9863C65.5953 84.7929 65.6357 86.9998 63.8018 87H10C4.47715 87 0 82.5229 0 77V10C1.03084e-06 4.47715 4.47715 4.08417e-08 10 0H63.8018ZM100.5 0C112.037 2.90297e-05 123.101 4.49939 131.259 12.5078C139.417 20.5162 144 31.3776 144 42.7031V76.8984C144 82.4212 139.529 86.898 134.006 86.9131C116.147 86.9618 92.4516 87.0889 91.3955 86.8965C90.1273 86.6646 56.9248 80.4222 57 42.7031C57.0227 31.3776 61.5835 20.5162 69.7412 12.5078C77.899 4.49943 88.9631 0 100.5 0ZM100.5 24.0205C95.4526 24.0205 90.612 25.9895 87.043 29.4932C83.4741 32.9968 81.4688 37.7483 81.4688 42.7031C81.4688 47.6581 83.4739 52.4104 87.043 55.9141C90.612 59.4177 95.4526 61.3857 100.5 61.3857C102.999 61.3857 105.474 60.9027 107.783 59.9639C110.092 59.025 112.19 57.6488 113.957 55.9141C115.724 54.1792 117.126 52.1192 118.082 49.8525C119.038 47.5859 119.531 45.1565 119.531 42.7031C119.531 40.2498 119.038 37.8203 118.082 35.5537C117.126 33.2872 115.724 31.2279 113.957 29.4932C112.19 27.7584 110.092 26.3813 107.783 25.4424C105.474 24.5035 102.999 24.0205 100.5 24.0205ZM11.9814 7C9.22003 7 6.98145 9.23859 6.98145 12C6.98165 14.7612 9.22016 17 11.9814 17H21.9277C24.6889 16.9998 26.9275 14.7611 26.9277 12C26.9277 9.23869 24.689 7.00016 21.9277 7H11.9814Z"/>
</mask>
<path d="M63.8018 0C65.6356 0.000195776 65.5954 2.20633 63.9482 3.0127C50.9597 9.36956 41.7666 25.0997 41.7666 43.5C41.7667 61.9 50.9599 77.6295 63.9482 83.9863C65.5953 84.7929 65.6357 86.9998 63.8018 87H10C4.47715 87 0 82.5229 0 77V10C1.03084e-06 4.47715 4.47715 4.08417e-08 10 0H63.8018ZM100.5 0C112.037 2.90297e-05 123.101 4.49939 131.259 12.5078C139.417 20.5162 144 31.3776 144 42.7031V76.8984C144 82.4212 139.529 86.898 134.006 86.9131C116.147 86.9618 92.4516 87.0889 91.3955 86.8965C90.1273 86.6646 56.9248 80.4222 57 42.7031C57.0227 31.3776 61.5835 20.5162 69.7412 12.5078C77.899 4.49943 88.9631 0 100.5 0ZM100.5 24.0205C95.4526 24.0205 90.612 25.9895 87.043 29.4932C83.4741 32.9968 81.4688 37.7483 81.4688 42.7031C81.4688 47.6581 83.4739 52.4104 87.043 55.9141C90.612 59.4177 95.4526 61.3857 100.5 61.3857C102.999 61.3857 105.474 60.9027 107.783 59.9639C110.092 59.025 112.19 57.6488 113.957 55.9141C115.724 54.1792 117.126 52.1192 118.082 49.8525C119.038 47.5859 119.531 45.1565 119.531 42.7031C119.531 40.2498 119.038 37.8203 118.082 35.5537C117.126 33.2872 115.724 31.2279 113.957 29.4932C112.19 27.7584 110.092 26.3813 107.783 25.4424C105.474 24.5035 102.999 24.0205 100.5 24.0205ZM11.9814 7C9.22003 7 6.98145 9.23859 6.98145 12C6.98165 14.7612 9.22016 17 11.9814 17H21.9277C24.6889 16.9998 26.9275 14.7611 26.9277 12C26.9277 9.23869 24.689 7.00016 21.9277 7H11.9814Z" fill="#E94E16"/>
<path d="M63.8018 0L63.8019 -1H63.8018V0ZM63.9482 3.0127L64.3878 3.91089L64.3879 3.91084L63.9482 3.0127ZM41.7666 43.5H40.7666V43.5L41.7666 43.5ZM63.9482 83.9863L64.388 83.0882L64.3878 83.0881L63.9482 83.9863ZM63.8018 87V88H63.8019L63.8018 87ZM0 10H-1H0ZM10 0V-1V0ZM100.5 0V-1V0ZM131.259 12.5078L131.959 11.7942L131.259 12.5078ZM144 42.7031H145V42.7031L144 42.7031ZM144 76.8984L145 76.8984V76.8984H144ZM134.006 86.9131L134.003 85.9131L134.006 86.9131ZM91.3955 86.8965L91.2156 87.8802L91.2162 87.8803L91.3955 86.8965ZM57 42.7031L56 42.7011V42.7011L57 42.7031ZM69.7412 12.5078L69.0407 11.7942L69.0407 11.7942L69.7412 12.5078ZM100.5 24.0205L100.5 23.0205H100.5V24.0205ZM87.043 29.4932L86.3424 28.7796V28.7796L87.043 29.4932ZM81.4688 42.7031L80.4688 42.7031V42.7031H81.4688ZM87.043 55.9141L86.3424 56.6277H86.3424L87.043 55.9141ZM100.5 61.3857V62.3857H100.5L100.5 61.3857ZM107.783 59.9639L108.16 60.8902L108.16 60.8902L107.783 59.9639ZM113.957 55.9141L114.658 56.6277V56.6277L113.957 55.9141ZM118.082 49.8525L119.003 50.2413L119.003 50.2413L118.082 49.8525ZM119.531 42.7031H120.531V42.7031L119.531 42.7031ZM118.082 35.5537L119.003 35.165L119.003 35.1649L118.082 35.5537ZM113.957 29.4932L114.658 28.7796L114.658 28.7796L113.957 29.4932ZM107.783 25.4424L108.16 24.516L108.16 24.516L107.783 25.4424ZM6.98145 12H5.98145V12.0001L6.98145 12ZM21.9277 17V18H21.9278L21.9277 17ZM26.9277 12L27.9277 12.0001V12H26.9277ZM21.9277 7L21.9278 6H21.9277V7ZM63.8018 0L63.8017 1C64.0555 1.00003 64.1303 1.07198 64.137 1.07847C64.1469 1.08795 64.1785 1.12266 64.1806 1.22439C64.1851 1.44785 64.0198 1.86424 63.5085 2.11455L63.9482 3.0127L64.3879 3.91084C65.5238 3.35478 66.2022 2.26492 66.1802 1.18368C66.1689 0.633049 65.9697 0.0657974 65.5228 -0.363632C65.0728 -0.796043 64.465 -0.999929 63.8019 -1L63.8018 0ZM63.9482 3.0127L63.5086 2.1145C50.111 8.67159 40.7666 24.7975 40.7666 43.5H41.7666H42.7666C42.7666 25.4019 51.8084 10.0675 64.3878 3.91089L63.9482 3.0127ZM41.7666 43.5L40.7666 43.5C40.7667 62.2022 50.1112 78.3275 63.5086 84.8845L63.9482 83.9863L64.3878 83.0881C51.8086 76.9315 42.7667 61.5978 42.7666 43.5L41.7666 43.5ZM63.9482 83.9863L63.5084 84.8844C64.0196 85.1347 64.1851 85.5513 64.1805 85.7752C64.1785 85.8772 64.1468 85.912 64.1369 85.9215C64.1302 85.928 64.0554 86 63.8017 86L63.8018 87L63.8019 88C64.4651 87.9999 65.073 87.7959 65.5229 87.3634C65.9698 86.9338 66.1689 86.3665 66.1801 85.8159C66.2021 84.7346 65.5239 83.6445 64.388 83.0882L63.9482 83.9863ZM63.8018 87V86H10V87V88H63.8018V87ZM10 87V86C5.02944 86 1 81.9706 1 77H0H-1C-1 83.0751 3.92487 88 10 88V87ZM0 77H1V10H0H-1V77H0ZM0 10H1C1 5.02944 5.02944 1 10 1V0V-1C3.92487 -1 -0.999999 3.92487 -1 10H0ZM10 0V1H63.8018V0V-1H10V0ZM100.5 0V1C111.778 1.00003 122.589 5.39842 130.558 13.2214L131.259 12.5078L131.959 11.7942C123.613 3.60036 112.296 -0.99997 100.5 -1V0ZM131.259 12.5078L130.558 13.2214C138.527 21.0438 143 31.6489 143 42.7031L144 42.7031L145 42.7031C145 31.1063 140.307 19.9886 131.959 11.7942L131.259 12.5078ZM144 42.7031H143V76.8984H144H145V42.7031H144ZM144 76.8984L143 76.8984C143 81.8691 138.976 85.8995 134.003 85.9131L134.006 86.9131L134.009 87.9131C140.082 87.8965 145 82.9733 145 76.8984L144 76.8984ZM134.006 86.9131L134.003 85.9131C125.071 85.9375 114.686 85.9814 106.398 85.9952C102.254 86.0021 98.6382 86.0015 95.993 85.9871C94.6698 85.9799 93.5931 85.9693 92.8161 85.9546C92.427 85.9473 92.1179 85.9389 91.8927 85.9297C91.6347 85.9192 91.5576 85.9095 91.5748 85.9127L91.3955 86.8965L91.2162 87.8803C91.3655 87.9075 91.5972 87.9194 91.8111 87.9281C92.0577 87.9381 92.3834 87.9468 92.7782 87.9543C93.5689 87.9692 94.6562 87.9799 95.9821 87.9871C98.6349 88.0015 102.257 88.0021 106.401 87.9952C114.69 87.9814 125.082 87.9375 134.009 87.9131L134.006 86.9131ZM91.3955 86.8965L91.5754 85.9128C91.003 85.8081 82.5615 84.226 74.292 78.056C66.0673 71.9194 57.9631 61.2144 58 42.7051L57 42.7031L56 42.7011C55.9617 61.9109 64.4212 73.1866 73.096 79.659C81.726 86.0979 90.5199 87.7529 91.2156 87.8802L91.3955 86.8965ZM57 42.7031L58 42.7051C58.0221 31.6481 62.4745 21.0428 70.4418 13.2214L69.7412 12.5078L69.0407 11.7942C60.6924 19.9896 56.0232 31.1071 56 42.7011L57 42.7031ZM69.7412 12.5078L70.4417 13.2214C78.4107 5.39846 89.2225 1 100.5 1V0V-1C88.7038 -1 77.3874 3.6004 69.0407 11.7942L69.7412 12.5078ZM100.5 24.0205V23.0205C95.1932 23.0205 90.1003 25.0905 86.3424 28.7796L87.043 29.4932L87.7435 30.2068C91.1237 26.8885 95.712 25.0205 100.5 25.0205V24.0205ZM87.043 29.4932L86.3424 28.7796C82.584 32.4692 80.4688 37.477 80.4688 42.7031L81.4688 42.7031L82.4688 42.7031C82.4688 38.0196 84.3641 33.5244 87.7435 30.2068L87.043 29.4932ZM81.4688 42.7031H80.4688C80.4688 47.9293 82.5838 52.9379 86.3424 56.6277L87.043 55.9141L87.7435 55.2005C84.364 51.8828 82.4688 47.3869 82.4688 42.7031H81.4688ZM87.043 55.9141L86.3424 56.6277C90.1004 60.3168 95.1934 62.3857 100.5 62.3857V61.3857V60.3857C95.7119 60.3857 91.1236 58.5186 87.7435 55.2005L87.043 55.9141ZM100.5 61.3857L100.5 62.3857C103.128 62.3857 105.731 61.8779 108.16 60.8902L107.783 59.9639L107.407 59.0375C105.218 59.9276 102.87 60.3857 100.5 60.3857L100.5 61.3857ZM107.783 59.9639L108.16 60.8902C110.589 59.9025 112.797 58.4544 114.658 56.6277L113.957 55.9141L113.256 55.2005C111.583 56.8433 109.595 58.1474 107.407 59.0375L107.783 59.9639ZM113.957 55.9141L114.658 56.6277C116.519 54.8007 117.995 52.6305 119.003 50.2413L118.082 49.8525L117.161 49.4638C116.256 51.608 114.93 53.5577 113.256 55.2005L113.957 55.9141ZM118.082 49.8525L119.003 50.2413C120.011 47.8521 120.531 45.2906 120.531 42.7031H119.531H118.531C118.531 45.0224 118.065 47.3197 117.161 49.4638L118.082 49.8525ZM119.531 42.7031L120.531 42.7031C120.531 40.1157 120.011 37.5541 119.003 35.165L118.082 35.5537L117.161 35.9425C118.065 38.0865 118.531 40.3838 118.531 42.7031L119.531 42.7031ZM118.082 35.5537L119.003 35.1649C117.995 32.7758 116.518 30.6063 114.658 28.7796L113.957 29.4932L113.256 30.2068C114.93 31.8495 116.256 33.7986 117.161 35.9425L118.082 35.5537ZM113.957 29.4932L114.658 28.7796C112.797 26.953 110.589 25.5038 108.16 24.516L107.783 25.4424L107.407 26.3687C109.595 27.2587 111.583 28.5637 113.256 30.2068L113.957 29.4932ZM107.783 25.4424L108.16 24.516C105.731 23.5283 103.128 23.0205 100.5 23.0205L100.5 24.0205L100.5 25.0205C102.87 25.0205 105.218 25.4787 107.407 26.3687L107.783 25.4424ZM11.9814 7V6C8.66775 6 5.98145 8.6863 5.98145 12H6.98145H7.98145C7.98145 9.79087 9.77232 8 11.9814 8V7ZM6.98145 12L5.98145 12.0001C5.98169 15.3135 8.6678 18 11.9814 18V17V16C9.77252 16 7.98161 14.209 7.98145 11.9999L6.98145 12ZM11.9814 17V18H21.9277V17V16H11.9814V17ZM21.9277 17L21.9278 18C25.2412 17.9998 27.9275 15.3134 27.9277 12.0001L26.9277 12L25.9277 11.9999C25.9276 14.2088 24.1366 15.9999 21.9277 16L21.9277 17ZM26.9277 12H27.9277C27.9277 8.68635 25.2412 6.0002 21.9278 6L21.9277 7L21.9277 8C24.1368 8.00013 25.9277 9.79103 25.9277 12H26.9277ZM21.9277 7V6H11.9814V7V8H21.9277V7Z" fill="url(#paint0_linear_2692_12259)" fill-opacity="0.5" mask="url(#path-1-inside-1_2692_12259)"/>
<defs>
<linearGradient id="paint0_linear_2692_12259" x1="0" y1="0" x2="96.4384" y2="184.983" gradientUnits="userSpaceOnUse">
<stop stop-color="#AC9D9D" stop-opacity="0.43"/>
<stop offset="0.615385" stop-color="white"/>
</linearGradient>
</defs>
</svg>
